<svg xmlns="http://www.w3.org/2000/svg" xmlns:xlink="http://www.w3.org/1999/xlink" width="480" height="230pt" viewBox="0 0 360 230"><defs><path id="b" d="M5 0H1.016v-7.703h.89v6.89H5Zm0 0"/><path id="c" d="M1.016 0v-7.703H3.14q4.061 0 4.062 3.75 0 1.783-1.125 2.875Q4.952 0 3.047 0Zm.89-6.89v6.078h1.157q1.512 0 2.359-.813.843-.81.844-2.297c0-1.976-1.055-2.969-3.157-2.969Zm0 0"/><path id="l" d="M.656-.312v-1.063q.17.157.422.297c.176.086.36.156.547.219.188.054.375.093.563.125q.28.045.53.046.827.001 1.235-.296.422-.31.422-.891 0-.311-.14-.547a1.5 1.5 0 0 0-.391-.422 3.7 3.7 0 0 0-.563-.36q-.328-.187-.703-.374-.409-.2-.765-.406-.346-.217-.61-.47a2 2 0 0 1-.406-.562 1.9 1.9 0 0 1-.14-.765q0-.515.234-.907.234-.387.609-.64.374-.247.86-.375a4 4 0 0 1 .968-.125q1.138.001 1.672.266v1.015q-.69-.468-1.75-.469c-.2 0-.398.024-.594.063q-.298.064-.531.203a1.14 1.14 0 0 0-.375.36.97.97 0 0 0-.14.53 1.12 1.12 0 0 0 .421.907q.216.174.531.344.31.173.72.359.404.204.78.438c.25.148.461.312.641.5q.28.27.438.609.17.33.172.765-.001.564-.22.97a1.8 1.8 0 0 1-.609.64q-.376.236-.875.344a5 5 0 0 1-1.03.109q-.19-.001-.454-.031A7 7 0 0 1 1.578 0a3.5 3.5 0 0 1-.531-.125 1.2 1.2 0 0 1-.39-.187m0 0"/><path id="m" d="M5.563-6.89h-2.22V0h-.905v-6.89H.217v-.813h5.345Zm0 0"/><path id="d" d="M1.703-.656q.997.001 1.39-.485.39-.481.391-1.765-.002-1.295-.39-1.781-.394-.5-1.39-.5h-.376v4.53Zm.016-5.172q1.34.002 1.969.719.639.703.64 2.203-.001 1.488-.64 2.203Q3.06 0 1.718 0H.532v-5.828Zm0 0"/><path id="e" d="M3.797-4.219v.703a2.2 2.2 0 0 0-.61-.265 2.2 2.2 0 0 0-.64-.094c-.324 0-.57.055-.735.156q-.234.158-.234.485c0 .187.055.336.172.437q.187.141.906.281l.281.047c.352.074.626.215.813.422q.282.3.281.781c0 .43-.156.766-.468 1.016Q3.106.112 2.28.11 1.951.108 1.594.03a6 6 0 0 1-.766-.187v-.75q.404.206.766.312.375.11.703.11.481 0 .734-.188a.65.65 0 0 0 .266-.547q-.002-.498-.953-.703h-.031l-.266-.062q-.628-.107-.922-.391-.28-.292-.281-.797 0-.622.422-.969.433-.341 1.218-.343.357.002.672.062.327.064.64.203m0 0"/><path id="f" d="M2.406-5.625v1.25h1.625v.563H2.406v2.375q-.002.485.172.671.186.188.64.188h.813V0h-.875q-.814 0-1.14-.328c-.22-.219-.328-.586-.328-1.11v-2.375H.516v-.562h1.172v-1.25Zm0 0"/><path id="g" d="M3.953-5.64v.812a3 3 0 0 0-.719-.344 2.3 2.3 0 0 0-.734-.125c-.367 0-.656.09-.875.266a.82.82 0 0 0-.328.687q-.001.394.203.594.216.204.813.344l.406.094q.826.187 1.203.609c.25.273.375.64.375 1.11q0 .831-.516 1.265-.516.438-1.5.437-.421 0-.844-.093a3.7 3.7 0 0 1-.812-.25v-.844q.434.28.844.422.404.127.812.125c.395 0 .703-.086.922-.266q.328-.264.328-.75 0-.434-.234-.656c-.149-.156-.406-.274-.781-.36l-.422-.109q-.814-.17-1.188-.547-.362-.374-.36-1 0-.78.517-1.25.527-.468 1.406-.468.328 0 .703.078.373.08.781.218m0 0"/><path id="h" d="M4.516-3.469a1.6 1.6 0 0 0-.47-.265 1.7 1.7 0 0 0-.53-.079q-.674 0-1.032.422-.344.423-.343 1.22V0h-.72v-4.375h.72v.86a1.42 1.42 0 0 1 .547-.72c.25-.163.546-.25.89-.25q.263.001.485.079c.156.043.304.11.453.203Zm0 0"/><path id="i" d="M4.14-.219a2.4 2.4 0 0 1-.593.235 2 2 0 0 1-.625.093Q1.902.11 1.328-.5.766-1.11.766-2.187q0-1.08.562-1.688.574-.61 1.594-.61.31 0 .61.094.31.082.609.25v.75a1.9 1.9 0 0 0-.578-.359 1.6 1.6 0 0 0-.641-.125q-.674.002-1.047.438-.361.439-.36 1.25-.002.814.36 1.25.374.438 1.047.437.374.001.672-.11.294-.122.547-.359Zm0 0"/><path id="j" d="M0-5.828h.766l.562 4.734L2-4.234h.813l.671 3.14.563-4.734h.766L3.953 0h-.75l-.797-3.469L1.625 0h-.75Zm0 0"/><path id="k" d="M1-6.516h7.61v1.266H1Zm3.156 4.438v-7.61h1.282v7.61Zm0 0"/><path id="r" d="m1.016-6.687 7.609-3.407v1.281l-7.61 3.329Zm0 1.609v-1.219l7.609 3.375v1.281Zm0 0"/><path id="n" d="M1.484-.562q.873 0 1.22-.422.341-.437.343-1.563-.002-1.124-.344-1.547-.345-.435-1.219-.437h-.328v3.968ZM1.5-5.11q1.17.001 1.719.625.562.626.562 1.937c0 .875-.187 1.524-.562 1.938Q2.67 0 1.5 0H.469v-5.11Zm0 0"/><path id="o" d="M1.078-3.812h1.61v3.328h1.25V0H.813v-.484h1.25v-2.844h-.985Zm.984-1.485h.626v.781h-.626Zm0 0"/><path id="p" d="M3.328-3.687v.609q-.268-.153-.547-.235a2 2 0 0 0-.562-.078q-.423 0-.64.141-.206.13-.204.422-.001.252.156.375.154.128.782.25l.265.047q.451.094.688.36c.164.179.25.405.25.687q-.001.563-.407.89Q2.716.096 2 .094c-.187 0-.387-.024-.594-.063A3.5 3.5 0 0 1 .734-.14v-.656q.34.188.657.281.326.094.625.094.406.002.64-.172a.55.55 0 0 0 .235-.468q0-.435-.844-.61l-.031-.016-.235-.046q-.55-.093-.797-.344-.251-.264-.25-.688 0-.562.375-.859c.25-.195.602-.297 1.063-.297.207 0 .406.024.594.063q.281.047.562.172m0 0"/><path id="q" d="M2.094-4.922v1.094H3.53v.484H2.094v2.078q-.002.423.156.594.169.174.563.172h.718V0h-.765Q2.045 0 1.75-.281q-.28-.282-.281-.985v-2.078H.453v-.484H1.47v-1.094Zm0 0"/><path id="s" d="M6.86-6.86H4.468V0H2.562v-6.86H.188v-1.546h6.671Zm0 0"/><path id="t" d="M1.078 0v-7.86h.906v7.048H5.47V0Zm0 0"/><path id="u" d="M7.031 0H6.11v-3.703H1.984V0h-.906v-7.86h.906v3.36H6.11v-3.36h.922Zm0 0"/><path id="v" d="M.813-.562c0-.25.054-.426.171-.532a.7.7 0 0 1 .454-.156c.175 0 .328.055.453.156q.187.158.187.532 0 .376-.187.546a.66.66 0 0 1-.453.172.65.65 0 0 1-.454-.172C.867-.129.813-.312.813-.562m0-4.766c0-.25.054-.426.171-.531a.65.65 0 0 1 .454-.172q.264 0 .453.172.187.156.187.53 0 .376-.187.548a.68.68 0 0 1-.453.156.67.67 0 0 1-.454-.156c-.117-.114-.171-.297-.171-.547m0 0"/><path id="w" d="M5.64-6.719c-.492-.101-.913-.156-1.265-.156q-1.266.002-1.266 1.328v.938h2.375v.78H3.11V0h-.937v-3.828H.437v-.781h1.735V-5.5Q2.17-7.656 4.406-7.656q.561.001 1.235.125ZM0-5.39"/><path id="x" d="M5.547-2.734q-.001.628-.172 1.156-.176.515-.516.89c-.218.25-.492.446-.812.579a2.7 2.7 0 0 1-1.078.203q-.58-.001-1.047-.172A2.2 2.2 0 0 1 1.14-.61a2.5 2.5 0 0 1-.485-.875A4 4 0 0 1 .5-2.672c0-.414.055-.797.172-1.14q.17-.516.5-.891c.226-.25.5-.442.812-.578a2.8 2.8 0 0 1 1.094-.203q.575 0 1.031.187c.313.117.57.29.782.516q.327.344.484.86.17.516.172 1.187m-.953.03c0-.331-.04-.616-.11-.858a1.8 1.8 0 0 0-.312-.626 1.35 1.35 0 0 0-.5-.375 1.6 1.6 0 0 0-.64-.125q-.425.002-.72.172-.3.158-.5.438-.187.269-.28.625a3.4 3.4 0 0 0-.079.75q-.001.504.11.89.106.377.312.626c.133.156.297.28.484.375q.296.126.672.125.405.001.703-.157.311-.169.5-.437.186-.28.266-.64.094-.374.094-.782m0 0"/><path id="z" d="M1.078-5.39h.86l.015.984q.482-.562.953-.813a1.9 1.9 0 0 1 .938-.265q.825 0 1.265.547.435.531.407 1.609h-.953q.011-.715-.204-1.031-.222-.329-.656-.328a1 1 0 0 0-.375.078 1.4 1.4 0 0 0-.39.218 3 3 0 0 0-.438.375 5 5 0 0 0-.469.547V0h-.953Zm0 0"/><path id="A" d="M5.578-3.5q0 .798-.172 1.469c-.105.437-.265.82-.484 1.14a2.4 2.4 0 0 1-.813.735q-.485.248-1.14.25Q2.406.092 1.938-.11a2.1 2.1 0 0 1-.782-.657Q.83-1.2.641-1.89C.523-2.348.469-2.883.469-3.5q-.001-.811.156-1.469c.113-.445.281-.828.5-1.14a2.2 2.2 0 0 1 .813-.735c.32-.176.703-.265 1.14-.265.375 0 .711.074 1.016.218q.468.207.797.641c.218.293.382.668.5 1.125q.187.689.187 1.625m-.953.031c0-.125-.008-.242-.016-.36q-.002-.184-.015-.358L1.609-1.985q.094.28.204.515.123.236.296.407a1.3 1.3 0 0 0 .922.36q.358 0 .656-.173.295-.186.5-.531.217-.342.329-.86.107-.528.109-1.203m-3.203-.078v.344q-.001.158.016.312l2.968-2.187a2.4 2.4 0 0 0-.203-.5 1.5 1.5 0 0 0-.297-.39 1.1 1.1 0 0 0-.39-.25 1.2 1.2 0 0 0-.485-.095q-.377.002-.672.172-.298.175-.515.532a2.8 2.8 0 0 0-.313.875c-.074.343-.11.742-.11 1.187m0 0"/><path id="B" d="m4.938-.5-.594.594-3.61-3.016 3.61-3.015.593.593L2-2.937Zm0 0"/><path id="D" d="M5.328-3.469H.718v-.797h4.61Zm0 1.875H.718v-.797h4.61Zm0 0"/><path id="E" d="M5.422-2.984a4 4 0 0 1-.016.343c0 .086-.008.168-.015.25H1.609q-.002.833.454 1.266.466.439 1.343.438.235.001.469-.016.232-.012.453-.047.217-.03.422-.062.2-.048.375-.094v.765c-.25.075-.54.133-.86.172a8 8 0 0 1-1 .063c-.46 0-.855-.067-1.187-.188A2.05 2.05 0 0 1 1.25-.64a2.3 2.3 0 0 1-.469-.875 4 4 0 0 1-.156-1.171c0-.376.05-.727.156-1.063q.17-.515.485-.89.309-.388.765-.61.468-.234 1.047-.234.561 0 1 .172c.29.117.535.28.734.5q.294.327.454.796c.101.305.156.649.156 1.032m-.984-.125a2 2 0 0 0-.079-.657 1.2 1.2 0 0 0-.265-.515 1.3 1.3 0 0 0-.438-.344 1.5 1.5 0 0 0-.625-.125q-.298.001-.562.125-.251.129-.438.344-.175.204-.281.515-.111.3-.14.657Zm0 0"/><path id="F" d="M5.078 0h-4v-7.016h4v.797H2.031v2.172h2.922v.813H2.031v2.422h3.047Zm0 0"/><path id="G" d="M9.094-.469Q7.858.188 6 .188 3.608.19 2.172-1.344.732-2.89.734-5.39q0-2.684 1.61-4.343 1.624-1.655 4.11-1.657 1.592.001 2.64.454v1.406a5.4 5.4 0 0 0-2.656-.672q-1.924 0-3.125 1.297Q2.107-7.624 2.109-5.47q0 2.048 1.125 3.266C3.984-1.398 4.961-1 6.172-1q1.687 0 2.922-.75Zm0 0"/><path id="H" d="M4.688-3.219q-.001.785-.125 1.406-.113.61-.375 1.032-.252.422-.657.656-.393.218-.969.219-.719 0-1.187-.39C1.07-.556.844-.93.688-1.423Q.453-2.173.453-3.22q0-1.029.203-1.765.216-.75.672-1.141.468-.405 1.235-.406.733 0 1.203.406.466.393.687 1.125.234.738.234 1.781m-3.5 0c0 .594.039 1.094.125 1.5q.139.599.437.89.31.299.813.298.498 0 .796-.297.312-.293.454-.89.14-.61.14-1.5t-.14-1.485c-.094-.395-.243-.692-.438-.89q-.299-.296-.812-.298c-.336 0-.606.102-.813.297q-.299.3-.437.89c-.086.4-.125.891-.125 1.485m0 0"/><path id="I" d="M4.453 0H.875v-6.422h3.578v.656H1.625v2.079h2.672v.656H1.625v2.375h2.828Zm0 0"/><path id="J" d="M3.156 0h-.703v-5.344q.013-.153.031-.312a3 3 0 0 1-.265.234q-.11.096-.297.25l-.719.578-.39-.484 1.734-1.344h.61Zm0 0"/><path id="K" d="M2.625-4.906q.608 0 1.047.281.45.269.672.766.234.485.234 1.14v.453H1.25q.012.845.422 1.297.42.439 1.156.438.451.001.797-.078.357-.094.75-.25v.64q-.376.159-.734.235-.364.077-.844.078-.69 0-1.203-.281a2.06 2.06 0 0 1-.813-.844Q.501-1.578.5-2.375c0-.52.086-.969.266-1.344q.264-.575.734-.875.48-.311 1.125-.312m-.016.593q-.58.002-.921.391-.347.376-.422 1.063h2.547q0-.423-.126-.75a1.1 1.1 0 0 0-.39-.516c-.18-.125-.406-.187-.688-.187m0 0"/><path id="L" d="M2.484.094Q1.56.095 1.031-.531.5-1.153.5-2.391q-.002-1.248.547-1.875.545-.639 1.453-.64.375.002.656.11.295.093.5.265.201.175.344.375h.063a1.7 1.7 0 0 1-.047-.36A6 6 0 0 1 4-4.906v-1.938h.734V0h-.593l-.11-.687H4q-.129.221-.344.39-.205.176-.5.281c-.187.07-.414.11-.672.11m.11-.61q.779.001 1.094-.437.328-.434.328-1.313v-.125q-.001-.92-.313-1.406-.3-.499-1.11-.5-.673 0-1.015.516-.328.516-.328 1.406c0 .594.11 1.055.328 1.375q.342.485 1.016.484m0 0"/><path id="M" d="M1.172 0v-8.562h1v7.671h3.797V0Zm0 0"/><path id="N" d="M7.672 0h-1v-4.031h-4.5V0h-1v-8.562h1v3.64h4.5v-3.64h1Zm0 0"/><clipPath id="a"><path d="M0 0h360v229.922H0Zm0 0"/></clipPath></defs><g clip-path="url(#a)"><path fill="#fff" d="M0 0h360v229.922H0Zm0 0"/></g><path fill="#fff" d="M-36-23h432v276H-36z"/><path fill="#4ea72e" d="m206.547 218.121 4.543 1.629 4.594 1.367 4.625 1.094 4.644.824 4.656.567 4.66.308 4.657.05 4.644-.198 4.625-.442 4.602-.687 4.558-.922 4.52-1.16 4.469-1.387 4.41-1.617 4.344-1.836 4.265-2.05 4.188-2.27 4.094-2.477 4-2.684 3.89-2.882 3.777-3.082 3.66-3.278 3.528-3.465 3.39-3.652 3.25-3.832 3.094-4.012 2.934-4.183 2.77-4.352 2.59-4.52 2.41-4.679 2.214-4.84 2.016-4.988 1.398-3.91 1.254-3.93 1.106-3.953.965-3.965.816-3.973.676-3.98.531-3.984.39-3.98.25-3.974.114-3.96-.027-3.946-.164-3.93-.305-3.902-.438-3.875-.574-3.844-.707-3.804-.844-3.766-.972-3.719-1.106-3.668-1.238-3.617-1.367-3.558-1.496-3.497-1.625-3.43-1.754-3.355-1.88-3.285-2.007-3.203-2.129-3.121-2.258-3.031-2.375-2.938-2.504-2.847-1.785-1.825-1.07 1.047 1.77 1.813-.028-.028 2.48 2.82-.019-.027 2.356 2.918-.016-.023 2.234 3.004-.015-.024 2.113 3.094-.016-.023 1.989 3.18-.016-.028 1.867 3.258-.015-.024 1.738 3.332-.012-.027 1.613 3.402-.011-.023 1.484 3.469-.008-.028 1.356 3.532-.008-.024 1.226 3.59-.007-.027 1.097 3.644-.007-.027.968 3.691-.008-.023.836 3.738-.004-.027.704 3.777-.004-.023.57 3.812-.004-.023.434 3.847v-.027l.297 3.879v-.027l.164 3.898v-.023l.027 3.918v-.028l-.11 3.938v-.028l-.25 3.95.005-.028-.391 3.953.004-.023-.528 3.953.004-.023-.672 3.953.004-.024-.812 3.95.008-.028-.957 3.938.007-.024-1.101 3.926.008-.027-1.242 3.906.007-.024-1.39 3.883.011-.027-2.003 4.957.011-.031-2.203 4.808.016-.03-2.39 4.648.015-.028-2.574 4.488.015-.03-2.746 4.323.02-.027-2.918 4.156.02-.027-3.075 3.984.023-.027-3.226 3.805.023-.024-3.367 3.625.024-.023-3.504 3.441.023-.023-3.629 3.254.024-.024-3.75 3.059.027-.02-3.863 2.864.027-.02-3.969 2.664.031-.02-4.066 2.458.031-.016-4.156 2.25.035-.016-4.238 2.036.035-.016-4.308 1.824.03-.015-4.37 1.601.035-.012-4.434 1.38.035-.012-4.48 1.148.035-.008-4.523.918.039-.008-4.559.68.04-.004-4.587.442.04-.004-4.606.195h.039l-4.613-.05h.039l-4.618-.306.04.004-4.614-.558.04.004-4.602-.82.039.011-4.582-1.086.039.012-4.555-1.352.04.012-4.52-1.625ZM313.398 41.793l-6.37-2.094 2.148 6.356ZM294.66 51.95v9.73h-1.5v-9.73Zm2.25 8.73-3 6-3-6Zm0 0"/><path d="M43.762 99.266 54.43 113.46l-1.2.898-10.667-14.191Zm11.863 12.043 1.207 6.597-6-2.992Zm0 0"/><path fill="#e97132" fill-rule="evenodd" stroke="#000" stroke-miterlimit="8" stroke-width="1.524" d="M139.383 68.895c0-7.582 6.148-13.73 13.73-13.73 7.586 0 13.735 6.148 13.735 13.73 0 7.585-6.149 13.734-13.735 13.734-7.582 0-13.73-6.149-13.73-13.734Zm0 0"/><g fill="#fff"><use xlink:href="#b" x="147.293" y="68.88"/><use xlink:href="#c" x="152.418" y="68.88"/></g><path fill="#e97132" fill-rule="evenodd" stroke="#000" stroke-miterlimit="8" stroke-width="1.524" d="M220.844 68.555c0-7.586 6.148-13.735 13.73-13.735 7.586 0 13.735 6.149 13.735 13.735 0 7.582-6.149 13.73-13.735 13.73-7.582 0-13.73-6.148-13.73-13.73Zm0 0"/><g fill="#fff"><use xlink:href="#b" x="229.043" y="68.4"/><use xlink:href="#c" x="234.168" y="68.4"/></g><g fill="#fff"><use xlink:href="#d" x="227.879" y="77.04"/><use xlink:href="#e" x="232.754" y="77.04"/><use xlink:href="#f" x="237.629" y="77.04"/></g><g fill="#fff"><use xlink:href="#g" x="145.802" y="78.24"/><use xlink:href="#h" x="150.677" y="78.24"/><use xlink:href="#i" x="155.552" y="78.24"/></g><path d="M194.563 35.367 156.617 52.43l.617 1.367 37.942-17.063Zm-37.954 14.598-4.242 5.2 6.703.273Zm39.403-12.899v13.192h-1.5V37.066Zm2.25 12.192-3 6-3-6Zm0 0"/><path fill="#e97132" fill-rule="evenodd" stroke="#000" stroke-miterlimit="8" stroke-width="1.524" d="M180.914 68.84c0-7.582 6.149-13.73 13.73-13.73 7.586 0 13.735 6.148 13.735 13.73 0 7.586-6.149 13.734-13.734 13.734-7.582 0-13.73-6.148-13.73-13.734Zm0 0"/><g fill="#fff"><use xlink:href="#b" x="188.826" y="68.4"/><use xlink:href="#c" x="193.95" y="68.4"/></g><path d="m195.191 35.375 34.727 16.527-.645 1.356-34.726-16.531Zm34.79 14.066 4.128 5.29-6.707.128Zm0 0"/><use xlink:href="#j" x="192.825" y="77.52" fill="#fff"/><path fill="#fff" fill-rule="evenodd" stroke="#000" stroke-miterlimit="8" stroke-width="1.524" d="M180.914 122.363c0-7.535 6.11-13.644 13.645-13.644s13.644 6.11 13.644 13.644c0 7.535-6.11 13.645-13.644 13.645-7.536 0-13.645-6.11-13.645-13.645Zm0 0"/><use xlink:href="#k" x="189.904" y="128.88"/><path d="M153.863 82.574v20.965h-1.5V82.574Zm2.25 19.965-3 6-3-6Zm39.489-19.965v20.965h-1.5V82.574Zm2.25 19.965-3 6-3-6Zm-30.883 18.984h8.945v1.5h-8.945Zm7.945-2.25 6 3-6 3Zm0 0"/><path fill="#e97132" fill-rule="evenodd" d="M180.738 210.777c0-7.586 6.149-13.734 13.73-13.734 7.587 0 13.735 6.148 13.735 13.734 0 7.582-6.148 13.73-13.734 13.73-7.582 0-13.73-6.148-13.73-13.73m0 0"/><path fill="none" stroke="#000" stroke-miterlimit="8" stroke-width="1.524" d="M180.738 210.777c0-7.586 6.145-13.734 13.73-13.734 7.587 0 13.735 6.148 13.735 13.734 0 7.582-6.148 13.73-13.734 13.73s-13.73-6.148-13.73-13.73Zm0 0"/><g fill="#fff"><use xlink:href="#l" x="189.273" y="210.72"/><use xlink:href="#m" x="195.148" y="210.72"/></g><g fill="#fff"><use xlink:href="#n" x="187.06" y="219.12"/><use xlink:href="#o" x="191.31" y="219.12"/><use xlink:href="#p" x="195.56" y="219.12"/><use xlink:href="#q" x="199.809" y="219.12"/></g><path d="M235.012 82.137v20.96h-1.5v-20.96Zm2.25 19.96-3 6-3-6Zm0 0"/><path fill="#fff" fill-rule="evenodd" stroke="#000" stroke-miterlimit="8" stroke-width="1.524" d="M180.914 169.64c0-7.535 6.11-13.644 13.645-13.644s13.644 6.11 13.644 13.645-6.11 13.644-13.644 13.644c-7.536 0-13.645-6.11-13.645-13.644Zm0 0"/><use xlink:href="#r" x="189.503" y="175.92"/><path d="m233.64 135.422-26.003 20.86.937 1.167 26.004-20.855Zm-26.632 18.476-2.801 6.094 6.555-1.414ZM193.809 136l-.18 14.414 1.5.02.18-14.418Zm-2.418 13.387 2.925 6.035 3.075-5.961Zm0 0"/><path fill="#00b0f0" fill-rule="evenodd" stroke="#000" stroke-miterlimit="8" stroke-width="1.524" d="m218.7 181.766 14.062-24.246 14.062 24.246Zm0 0"/><use xlink:href="#s" x="229.615" y="178.32" fill="#fff"/><path d="M208.203 168.89h12.527v1.5h-12.527Zm11.527-2.25 6 3-6 3Zm12.52 14.692-25.191 15.34.777 1.281 25.195-15.34Zm-25.508 12.898-3.566 5.684 6.683-.559ZM245.45 77.727l1.831 2.32 1.7 2.394 1.554 2.45 1.406 2.496 1.266 2.543 1.121 2.582.977 2.617.836 2.648.695 2.668.55 2.692.41 2.703.274 2.715.133 2.715-.008 2.718-.144 2.711-.281 2.7-.418 2.683-.555 2.664-.692 2.637-.824 2.61-.96 2.57-1.09 2.53-1.227 2.485-1.356 2.434-1.488 2.379-1.62 2.316-1.75 2.254-1.88 2.18-2.004 2.105-2.14 2.027-2.649 2.184-.953-1.156 2.625-2.168-.039.035 2.11-2-.028.027 1.98-2.078-.023.031 1.852-2.152-.024.027 1.727-2.222-.024.031 1.598-2.285-.02.031 1.47-2.348-.02.036 1.336-2.403-.016.035 1.207-2.453-.016.035 1.078-2.496-.015.036.945-2.536-.012.036.817-2.57-.012.038.68-2.601-.008.035.547-2.625-.008.035.414-2.644-.004.035.278-2.66-.004.035.14-2.672v.039l.008-2.68v.04l-.129-2.68v.039l-.265-2.676.003.039-.406-2.668.008.039-.543-2.652.008.039-.684-2.633.012.035-.824-2.61.012.04-.965-2.582.015.039-1.105-2.547.015.035-1.246-2.508.016.031-1.387-2.46.02.03-1.535-2.413.023.031-1.676-2.363.02.03-1.82-2.304Zm-6.208 78.953-6.601 1.203 3-6.004Zm0 0"/><path fill="#00b0f0" fill-rule="evenodd" stroke="#000" stroke-miterlimit="8" stroke-width="1.524" d="m139.668 181.766 14.062-24.246 14.063 24.246Zm0 0"/><use xlink:href="#s" x="150.584" y="178.32" fill="#fff"/><path d="m184.418 132.36-27.227 21.472.93 1.18 27.227-21.473Zm-27.832 19.09-2.856 6.07 6.57-1.36Zm23.469 17.44h-14.368v1.5h14.368Zm-13.368-2.25-6 3 6 3Zm-11.867 14.68 27.399 15.48-.735 1.305-27.398-15.48Zm27.637 13.032 3.746 5.562-6.7-.34Zm0 0"/><path fill="none" stroke="#00b0f0" stroke-dasharray="6.096 4.572" stroke-miterlimit="8" stroke-width="1.524" d="M22.7 52.727a9.297 9.297 0 0 1 9.296-9.297h84.434a9.297 9.297 0 0 1 9.297 9.297v136.957a9.297 9.297 0 0 1-9.297 9.297H31.996a9.297 9.297 0 0 1-9.297-9.297Zm0 0"/><g fill="#00b0f0"><use xlink:href="#t" x="22.366" y="37.92"/><use xlink:href="#u" x="27.866" y="37.92"/></g><use xlink:href="#v" x="35.61" y="37.92" fill="#00b0f0"/><g fill="#00b0f0"><use xlink:href="#w" x="41.116" y="37.92"/><use xlink:href="#x" x="46.866" y="37.92"/><use xlink:href="#z" x="52.615" y="37.92"/><use xlink:href="#A" x="64.115" y="37.92"/><use xlink:href="#B" x="75.614" y="37.92"/><use xlink:href="#D" x="81.364" y="37.92"/><use xlink:href="#E" x="92.863" y="37.92"/><use xlink:href="#B" x="104.363" y="37.92"/><use xlink:href="#F" x="115.862" y="37.92"/></g><path fill="#00b0f0" stroke="#000" stroke-miterlimit="8" stroke-width="1.524" d="M30.965 75.102h25.05v25.046h-25.05Zm0 0"/><use xlink:href="#G" x="38.552" y="93.84" fill="#fff"/><path d="M38.41 60.152v9.727h-1.5v-9.727Zm2.25 8.727-3 6-3-6Zm0 0"/><use xlink:href="#H" x="35.001" y="56.16"/><path fill="#fff" fill-rule="evenodd" stroke="#000" stroke-miterlimit="8" stroke-width="1.524" d="M52.836 127.555c0-7.535 6.11-13.645 13.644-13.645 7.536 0 13.645 6.11 13.645 13.645s-6.11 13.644-13.645 13.644-13.644-6.11-13.644-13.644Zm0 0"/><use xlink:href="#r" x="61.911" y="133.68"/><path d="m82.973 108.07-4.325 5.453 1.176.934 4.32-5.453Zm-5.465 3.274-1.38 6.562 6.079-2.836Zm0 0"/><use xlink:href="#I" x="84.18" y="106.08"/><path d="M43.91 99.715v45.562h-1.5V99.715Zm2.25 44.562-3 6-3-6Zm19.723-3.531L52.52 158.324l1.195.91 13.363-17.582Zm-14.547 15.422-1.242 6.59 6.02-2.961ZM79.7 131.61l2.222-.735 2.129-.777 2.02-.817 1.913-.86 1.809-.894 1.695-.93 1.586-.96 1.477-.996 1.367-1.024 1.25-1.05 1.14-1.083 1.024-1.105.906-1.129.79-1.148.667-1.172.547-1.192.426-1.207.297-1.219.168-1.23.035-1.234-.094-1.235-.222-1.234-.36-1.227-.488-1.215-.621-1.203-.75-1.183-.88-1.172-1.007-1.149-1.14-1.128-1.266-1.106-1.399-1.082-1.53-1.059-1.727-1.066-1.84-1.016-1.946-.964-2.046-.91-2.141-.86-2.242-.805-4.711-1.433-5.024-1.2-5.285-.953-6.156-.734-.18 1.488 6.133.73-.043-.003 5.246.945-.043-.008 4.98 1.188-.042-.012 4.672 1.422-.036-.012 2.211.793-.027-.007 2.117.847-.027-.012 2.02.899-.028-.012 1.918.95-.031-.016 1.808 1-.03-.02 1.694 1.051-.03-.023 1.495 1.035-.03-.024 1.362 1.055-.03-.027 1.23 1.078-.036-.035 1.106 1.093-.035-.039.972 1.11-.035-.043.844 1.12-.035-.05.715 1.133-.032-.055.586 1.14-.027-.062.46 1.149-.022-.07.335 1.152-.015-.075.21 1.157-.011-.078.09 1.156-.004-.078-.035 1.156.008-.082-.157 1.152.012-.074-.277 1.145.02-.07-.4 1.136.028-.062-.52 1.128.032-.058-.64 1.113.034-.05-.757 1.1.035-.042-.871 1.086.03-.043-.987 1.07.035-.035-1.106 1.047.035-.031-1.218 1.027.031-.027-1.332 1 .031-.02-1.445.973.027-.02-1.558.946.03-.016-1.667.914.027-.016-1.781.88.027-.012-1.89.847.027-.011-1.996.808.023-.008-2.105.77.023-.008-2.214.727ZM61.433 84.745l-6.215 2.52 5.746 3.46Zm27.993 60.974v6.847h-1.5v-6.847Zm2.25 5.847-3 6-3-6Zm0 0"/><use xlink:href="#J" x="86.478" y="141.6"/><path d="m103.164 159.32 1.777-2.843 1.68-2.91 1.582-2.97 1.48-3.011 1.376-3.059 1.273-3.097 1.172-3.125 1.066-3.153.965-3.168.86-3.187.753-3.192.653-3.199.547-3.191.441-3.184.336-3.172.23-3.148.122-3.125.02-3.102-.286-6.054-.309-2.97-.41-2.91-.523-2.85-.63-2.782-.741-2.715-.852-2.633-.96-2.554-1.075-2.461-1.188-2.371-1.296-2.27-1.41-2.16-1.528-2.047-1.426-1.695-1.492-1.567-1.543-1.441-1.601-1.313-1.653-1.183-1.699-1.059-1.742-.93-1.785-.804-1.825-.676-1.859-.547-1.89-.422-1.922-.297-1.942-.168-1.969-.042-1.984.078-1.996.203-2.012.328-2.023.453-2.028.574-2.027.692-2.031.816-2.028.938-2.023 1.054-2.016 1.172-2 1.297-1.992 1.41-1.972 1.527-1.954 1.649-1.933 1.766-2.211 2.25 1.07 1.054 2.196-2.238-.032.027 1.91-1.742-.02.02 1.93-1.63-.023.02 1.946-1.508-.024.02 1.961-1.395-.027.02 1.976-1.277-.027.02 1.984-1.157-.031.016 1.988-1.04-.031.016 1.992-.918-.031.016 1.992-.801-.035.012 1.992-.68-.039.012 1.988-.563-.043.008 1.98-.441-.042.011 1.969-.324-.047.008 1.957-.2-.047.005 1.937-.082-.046.004 1.918.042-.051-.003 1.898.164-.05-.004 1.87.289-.05-.012 1.844.41-.051-.011 1.812.535-.05-.016 1.777.656-.047-.02 1.738.782-.043-.02 1.7.907-.044-.028 1.657 1.032-.04-.028 1.61 1.157-.039-.028 1.562 1.281-.035-.03 1.512 1.41-.031-.036 1.457 1.535-.028-.03 1.399 1.66-.027-.036 1.496 2.012-.028-.04 1.387 2.126-.02-.04 1.274 2.231-.02-.035 1.168 2.332-.015-.035 1.058 2.426-.015-.035.949 2.519-.012-.035.84 2.601-.008-.03.73 2.679-.007-.031.625 2.75-.008-.028.516 2.817-.004-.028.41 2.88-.004-.028.3 2.933-.003-.039.285 6.012v-.039l-.02 3.067.004-.024-.125 3.098.004-.024-.23 3.125.004-.023-.336 3.144.004-.023-.438 3.16.004-.023-.543 3.172.004-.024-.644 3.172.004-.023-.75 3.171.003-.023-.851 3.164.004-.023-.957 3.148.008-.023-1.06 3.129.009-.024-1.164 3.106.011-.024-1.265 3.074.008-.023-1.364 3.035.008-.023-1.465 2.992.012-.02-1.57 2.942.011-.024-1.668 2.89.012-.023-1.77 2.832ZM50.707 68.531l-1.84 6.453 6.266-2.398Zm0 0"/><use xlink:href="#K" x="40.466" y="216.72"/><path d="M67.23 141.46v62.243h-1.5v-62.242Zm2.25 61.243-3 6-3-6Zm0 0"/><path fill="none" stroke="#fff" stroke-miterlimit="8" stroke-width="3.048" d="M43.082 175.395c1.43 13.246 13.383 18.421 26.703 11.562 4.29-2.207 8.375-5.512 11.84-9.574"/><path d="m42.348 175.414.394 2.43.645 2.277.879 2.082 1.101 1.871 1.305 1.656 1.5 1.43 1.672 1.192 1.836.953 1.972.699 2.102.441 2.207.188 2.305-.078 2.379-.348 2.449-.617 2.5-.895 2.543-1.175 3.336-1.961 3.203-2.368 1.558-1.34.801-.828-1.078-1.043-.773.801.046-.047-1.511 1.305.043-.035-3.149 2.324.067-.043-3.274 1.922.067-.035-2.48 1.148.062-.027-2.434.871.07-.02-2.375.598.075-.015-2.301.335.082-.007-2.219.078h.09l-2.117-.176.09.012-2.004-.422.093.023-1.878-.664.093.04-1.738-.9.09.056-1.586-1.133.082.07-1.422-1.355.07.078-1.242-1.575.059.086-1.047-1.789.043.09-.84-1.992.027.086-.62-2.191.019.082-.387-2.387Zm37.625 7.887 1.984-6.41-6.316 2.257Zm0 0"/><path fill="#fff" fill-rule="evenodd" stroke="#000" stroke-miterlimit="8" stroke-width="1.524" d="M80.02 169.977c0-7.54 6.109-13.645 13.644-13.645s13.645 6.106 13.645 13.645c0 7.535-6.11 13.644-13.645 13.644s-13.644-6.11-13.644-13.644Zm0 0"/><use xlink:href="#k" x="89.01" y="176.64"/><path fill="none" stroke="#fff" stroke-miterlimit="8" stroke-width="3.048" d="M293.648 91.387c3.387 14.125-16.812 27.144-46.695 30.09"/><path fill="#00b0f0" fill-rule="evenodd" stroke="#000" stroke-miterlimit="8" stroke-width="1.524" d="m29 174.883 14.063-24.246 14.062 24.246Zm0 0"/><use xlink:href="#s" x="39.561" y="171.6" fill="#fff"/><path d="M43.813 174.883v28.562h-1.5v-28.562Zm2.25 27.562-3 6-3-6Zm0 0"/><use xlink:href="#L" x="63.634" y="217.2"/><use xlink:href="#K" x="187.853" y="45.84"/><path fill="#00b0f0" stroke="#000" stroke-miterlimit="8" stroke-width="1.524" d="M281.148 27.332H306.2v25.047h-25.05Zm0 0"/><use xlink:href="#G" x="288.737" y="46.08" fill="#fff"/><path d="M289.418 13.086v9.727h-1.5v-9.727Zm2.25 8.727-3 6-3-6Zm0 0"/><use xlink:href="#H" x="286.01" y="9.12"/><path d="m210.648 21.566 65.829 16.356-.36 1.457-65.832-16.36Zm65.403 13.93 5.097 4.36-6.546 1.464Zm0 0"/><use xlink:href="#L" x="217.073" y="20.88"/><path fill="#c1e5f5" fill-rule="evenodd" stroke="#00b0f0" stroke-dasharray="4.572 1.524" stroke-miterlimit="8" stroke-width="1.524" d="M181.492 12.39a4.59 4.59 0 0 1 4.59-4.59h18.363a4.59 4.59 0 0 1 4.59 4.59v18.364a4.59 4.59 0 0 1-4.59 4.59h-18.363a4.59 4.59 0 0 1-4.59-4.59Zm0 0"/><g fill="#00b0f0"><use xlink:href="#M" x="187.853" y="25.92"/><use xlink:href="#N" x="194.103" y="25.92"/></g><path fill="none" stroke="#fff" stroke-miterlimit="8" stroke-width="3.048" d="M294.621 91.305c-1.926 30.761-40.422 54.644-85.984 53.343-17.407-.496-34.133-4.699-47.79-12.003"/><path fill="#4ea72e" d="m295.387 91.379-.29 2.89-.507 2.876-.711 2.824-.914 2.773-1.11 2.715-1.3 2.656-1.48 2.59-1.66 2.527-1.833 2.454-2 2.382-2.16 2.305-2.317 2.227-2.464 2.14-2.606 2.059-2.75 1.965-2.879 1.875-3.008 1.777-3.128 1.68-3.247 1.578-3.359 1.473-3.465 1.363-3.566 1.254-3.66 1.136-3.75 1.016-3.832.899-3.914.769-3.989.645-4.054.511-4.118.375-4.18.239-4.226.093-4.277-.047-6.387-.351-6.305-.676-6.191-1-6.05-1.312-5.887-1.625-5.704-1.926-6.14-2.555.578-1.387 6.117 2.547-.047-.02 5.653 1.915-.04-.012 5.848 1.61-.043-.008 6.016 1.304-.043-.007 6.152.992-.039-.004 6.266.672-.04-.004 6.348.347h-.03l4.25.047h-.028l4.203-.093h-.024l4.149-.235h-.024l4.094-.37h-.027l4.031-.509-.027.004 3.965-.637-.028.004 3.887-.765-.024.004 3.81-.891-.028.008 3.726-1.012-.027.008 3.633-1.129-.024.008 3.536-1.242-.024.011 3.438-1.355-.028.012 3.332-1.461-.027.011 3.219-1.562-.024.012 3.102-1.664-.028.015 2.98-1.762-.026.016 2.851-1.855-.027.015 2.719-1.945-.028.02 2.582-2.032-.027.02 2.437-2.117-.027.027 2.285-2.2-.027.028 2.133-2.277-.028.03 1.973-2.347-.027.032 1.808-2.418-.027.035 1.637-2.489-.024.043 1.457-2.554-.023.043 1.277-2.61-.02.047 1.09-2.668-.02.047.9-2.723-.016.051.699-2.773-.012.054.496-2.82-.008.055.29-2.863Zm-129.516 47.02-4.125-5.29 6.707-.125Zm0 0"/><path d="m210.875 21.867 72.633 54.098-.899 1.203L209.98 23.07Zm73.176 51.695 3.02 5.989-6.606-1.176Zm0 0"/><path fill="#e97132" fill-rule="evenodd" stroke="#000" stroke-miterlimit="8" stroke-width="1.524" d="M139.383 122.273c0-7.582 6.148-13.73 13.73-13.73 7.586 0 13.735 6.148 13.735 13.73 0 7.586-6.149 13.735-13.735 13.735-7.582 0-13.73-6.149-13.73-13.735Zm0 0"/><g fill="#fff"><use xlink:href="#b" x="147.293" y="122.16"/><use xlink:href="#c" x="152.418" y="122.16"/></g><g fill="#fff"><use xlink:href="#n" x="145.705" y="130.08"/><use xlink:href="#o" x="149.955" y="130.08"/><use xlink:href="#p" x="154.204" y="130.08"/><use xlink:href="#q" x="158.454" y="130.08"/></g><path fill="#4ea72e" d="m294.387 91.445.254 1.34.12 1.371-.019 1.364-.148 1.347-.285 1.336-.41 1.313-.54 1.296-.656 1.27-.773 1.246-.887 1.219-1 1.195-1.106 1.164-1.214 1.133-1.313 1.106-1.414 1.074-1.512 1.039-1.605 1.004-1.7.972-1.788.934-1.88.898-4 1.668-4.327 1.504-4.633 1.32-4.918 1.13-5.606.957-.254-1.48 5.586-.95-.043.008 4.88-1.121-.04.011 4.594-1.312-.04.011 4.286-1.488-.043.016 3.961-1.653-.035.016 1.855-.883-.023.012 1.762-.922-.024.012 1.672-.953-.027.015 1.582-.992-.028.02 1.485-1.02-.031.02 1.386-1.051-.031.023 1.285-1.078-.027.024 1.18-1.106-.032.031 1.075-1.132-.032.035.969-1.153-.031.04.855-1.176-.027.043.742-1.196-.027.051.629-1.215-.028.055.512-1.234-.023.062.39-1.246-.02.066.27-1.261-.012.07.145-1.277-.008.074.016-1.285.004.074-.114-1.297.012.074-.25-1.304Zm-40.094 32.301-6.348-2.176 5.547-3.773Zm0 0"/><path fill="#00b0f0" fill-rule="evenodd" stroke="#000" stroke-miterlimit="8" stroke-width="1.524" d="m280.04 91.676 14.062-24.246 14.062 24.246Zm0 0"/><use xlink:href="#s" x="290.864" y="88.08" fill="#fff"/><path fill="#e97132" fill-rule="evenodd" stroke="#000" stroke-miterlimit="8" stroke-width="1.524" d="M220.375 122.273c0-7.582 6.148-13.73 13.734-13.73s13.735 6.148 13.735 13.73c0 7.586-6.149 13.735-13.735 13.735s-13.734-6.149-13.734-13.735Zm0 0"/><g fill="#fff"><use xlink:href="#b" x="228.288" y="122.16"/><use xlink:href="#c" x="233.413" y="122.16"/></g><g fill="#fff"><use xlink:href="#n" x="226.155" y="130.08"/><use xlink:href="#o" x="230.404" y="130.08"/><use xlink:href="#p" x="234.654" y="130.08"/><use xlink:href="#q" x="238.904" y="130.08"/></g></svg>