<svg xmlns="http://www.w3.org/2000/svg" xmlns:xlink="http://www.w3.org/1999/xlink" width="336" height="230pt" viewBox="0 0 252 230"><defs><path id="b" d="M5 0H1.016v-7.703h.89v6.89H5Zm0 0"/><path id="c" d="M1.016 0v-7.703H3.14q4.061 0 4.062 3.75 0 1.783-1.125 2.875Q4.952 0 3.047 0Zm.89-6.89v6.078h1.157q1.512 0 2.359-.813.843-.81.844-2.297c0-1.976-1.055-2.969-3.157-2.969Zm0 0"/><path id="l" d="M.656-.312v-1.063q.17.157.422.297c.176.086.36.156.547.219.188.054.375.093.563.125q.28.045.53.046.827.001 1.235-.296.422-.31.422-.891 0-.311-.14-.547a1.5 1.5 0 0 0-.391-.422 3.7 3.7 0 0 0-.563-.36q-.328-.187-.703-.374-.409-.2-.765-.406-.346-.217-.61-.47a2 2 0 0 1-.406-.562 1.9 1.9 0 0 1-.14-.765q0-.515.234-.907.234-.387.609-.64.374-.247.86-.375a4 4 0 0 1 .968-.125q1.138.001 1.672.266v1.015q-.69-.468-1.75-.469c-.2 0-.398.024-.594.063q-.298.064-.531.203a1.14 1.14 0 0 0-.375.36.97.97 0 0 0-.14.53 1.12 1.12 0 0 0 .421.907q.216.174.531.344.31.173.72.359.404.204.78.438c.25.148.461.312.641.5q.28.27.438.609.17.33.172.765-.001.564-.22.97a1.8 1.8 0 0 1-.609.64q-.376.236-.875.344a5 5 0 0 1-1.03.109q-.19-.001-.454-.031A7 7 0 0 1 1.578 0a3.5 3.5 0 0 1-.531-.125 1.2 1.2 0 0 1-.39-.187m0 0"/><path id="m" d="M5.563-6.89h-2.22V0h-.905v-6.89H.217v-.813h5.345Zm0 0"/><path id="d" d="M1.703-.656q.997.001 1.39-.485.39-.481.391-1.765-.002-1.295-.39-1.781-.394-.5-1.39-.5h-.376v4.53Zm.016-5.172q1.34.002 1.969.719.639.703.64 2.203-.001 1.488-.64 2.203Q3.06 0 1.718 0H.532v-5.828Zm0 0"/><path id="e" d="M3.797-4.219v.703a2.2 2.2 0 0 0-.61-.265 2.2 2.2 0 0 0-.64-.094c-.324 0-.57.055-.735.156q-.234.158-.234.485c0 .187.055.336.172.437q.187.141.906.281l.281.047c.352.074.626.215.813.422q.282.3.281.781c0 .43-.156.766-.468 1.016Q3.106.112 2.28.11 1.951.108 1.594.03a6 6 0 0 1-.766-.187v-.75q.404.206.766.312.375.11.703.11.481 0 .734-.188a.65.65 0 0 0 .266-.547q-.002-.498-.953-.703h-.031l-.266-.062q-.628-.107-.922-.391-.28-.292-.281-.797 0-.622.422-.969.433-.341 1.218-.343.357.002.672.062.327.064.64.203m0 0"/><path id="f" d="M2.406-5.625v1.25h1.625v.563H2.406v2.375q-.002.485.172.671.186.188.64.188h.813V0h-.875q-.814 0-1.14-.328c-.22-.219-.328-.586-.328-1.11v-2.375H.516v-.562h1.172v-1.25Zm0 0"/><path id="g" d="M3.953-5.64v.812a3 3 0 0 0-.719-.344 2.3 2.3 0 0 0-.734-.125c-.367 0-.656.09-.875.266a.82.82 0 0 0-.328.687q-.001.394.203.594.216.204.813.344l.406.094q.826.187 1.203.609c.25.273.375.64.375 1.11q0 .831-.516 1.265-.516.438-1.5.437-.421 0-.844-.093a3.7 3.7 0 0 1-.812-.25v-.844q.434.28.844.422.404.127.812.125c.395 0 .703-.086.922-.266q.328-.264.328-.75 0-.434-.234-.656c-.149-.156-.406-.274-.781-.36l-.422-.109q-.814-.17-1.188-.547-.362-.374-.36-1 0-.78.517-1.25.527-.468 1.406-.468.328 0 .703.078.373.08.781.218m0 0"/><path id="h" d="M4.516-3.469a1.6 1.6 0 0 0-.47-.265 1.7 1.7 0 0 0-.53-.079q-.674 0-1.032.422-.344.423-.343 1.22V0h-.72v-4.375h.72v.86a1.42 1.42 0 0 1 .547-.72c.25-.163.546-.25.89-.25q.263.001.485.079c.156.043.304.11.453.203Zm0 0"/><path id="i" d="M4.14-.219a2.4 2.4 0 0 1-.593.235 2 2 0 0 1-.625.093Q1.902.11 1.328-.5.766-1.11.766-2.187q0-1.08.562-1.688.574-.61 1.594-.61.31 0 .61.094.31.082.609.25v.75a1.9 1.9 0 0 0-.578-.359 1.6 1.6 0 0 0-.641-.125q-.674.002-1.047.438-.361.439-.36 1.25-.002.814.36 1.25.374.438 1.047.437.374.001.672-.11.294-.122.547-.359Zm0 0"/><path id="j" d="M0-5.828h.766l.562 4.734L2-4.234h.813l.671 3.14.563-4.734h.766L3.953 0h-.75l-.797-3.469L1.625 0h-.75Zm0 0"/><path id="k" d="M1-6.516h7.61v1.266H1Zm3.156 4.438v-7.61h1.282v7.61Zm0 0"/><path id="r" d="m1.016-6.687 7.609-3.407v1.281l-7.61 3.329Zm0 1.609v-1.219l7.609 3.375v1.281Zm0 0"/><path id="n" d="M1.484-.562q.873 0 1.22-.422.341-.437.343-1.563-.002-1.124-.344-1.547-.345-.435-1.219-.437h-.328v3.968ZM1.5-5.11q1.17.001 1.719.625.562.626.562 1.937c0 .875-.187 1.524-.562 1.938Q2.67 0 1.5 0H.469v-5.11Zm0 0"/><path id="o" d="M1.078-3.812h1.61v3.328h1.25V0H.813v-.484h1.25v-2.844h-.985Zm.984-1.485h.626v.781h-.626Zm0 0"/><path id="p" d="M3.328-3.687v.609q-.268-.153-.547-.235a2 2 0 0 0-.562-.078q-.423 0-.64.141-.206.13-.204.422-.001.252.156.375.154.128.782.25l.265.047q.451.094.688.36c.164.179.25.405.25.687q-.001.563-.407.89Q2.716.096 2 .094c-.187 0-.387-.024-.594-.063A3.5 3.5 0 0 1 .734-.14v-.656q.34.188.657.281.326.094.625.094.406.002.64-.172a.55.55 0 0 0 .235-.468q0-.435-.844-.61l-.031-.016-.235-.046q-.55-.093-.797-.344-.251-.264-.25-.688 0-.562.375-.859c.25-.195.602-.297 1.063-.297.207 0 .406.024.594.063q.281.047.562.172m0 0"/><path id="q" d="M2.094-4.922v1.094H3.53v.484H2.094v2.078q-.002.423.156.594.169.174.563.172h.718V0h-.765Q2.045 0 1.75-.281q-.28-.282-.281-.985v-2.078H.453v-.484H1.47v-1.094Zm0 0"/><path id="s" d="M6.86-6.86H4.468V0H2.562v-6.86H.188v-1.546h6.671Zm0 0"/><path id="t" d="M.984 0v-7.86h1.672v6.485h3.188V0Zm0 0"/><path id="u" d="M7.422 0H5.766v-3.39h-3.11V0H.984v-7.86h1.672v3.079h3.11V-7.86h1.656Zm0 0"/><path id="v" d="M.625-.766q0-.498.281-.703.28-.217.672-.218.375.001.656.218.282.205.282.703 0 .487-.282.704a1.1 1.1 0 0 1-.656.203Q1.187.139.906-.062.626-.28.625-.766m0-4.437q0-.498.281-.703.28-.218.672-.219.375 0 .656.219.282.204.282.703 0 .486-.282.703a1.1 1.1 0 0 1-.656.203q-.391.001-.672-.203-.28-.217-.281-.703m0 0"/><path id="w" d="M5.64-6.484a6 6 0 0 0-.562-.11q-.316-.06-.656-.062c-.156 0-.305.023-.438.062a1 1 0 0 0-.343.203 1 1 0 0 0-.235.344 1.4 1.4 0 0 0-.078.5v.875h2.156v1.016H3.328V0H2.016v-3.656H.438v-1.016h1.578V-5.5c0-.383.054-.71.172-.984.113-.282.269-.508.468-.688q.31-.263.75-.39a3.6 3.6 0 0 1 .969-.125q.355 0 .672.046c.219.032.414.07.594.11ZM0-5.454"/><path id="x" d="M5.656-2.766q0 .644-.187 1.172-.176.535-.516.922-.346.377-.844.594a3.1 3.1 0 0 1-1.14.203 3.3 3.3 0 0 1-1.094-.172 2.35 2.35 0 0 1-.812-.531 2.35 2.35 0 0 1-.5-.89C.445-1.82.39-2.235.39-2.704a3.7 3.7 0 0 1 .172-1.172q.186-.53.53-.906.357-.375.86-.578a2.8 2.8 0 0 1 1.125-.22q.61 0 1.078.188c.32.118.594.293.813.532q.34.363.515.89.171.517.172 1.203m-1.36.032c0-.57-.109-1-.327-1.282q-.317-.42-.938-.421-.347 0-.594.14a1.1 1.1 0 0 0-.39.36 1.7 1.7 0 0 0-.235.546 3.3 3.3 0 0 0-.062.657q-.001.861.344 1.297.34.42.937.421c.219 0 .406-.039.563-.125a.94.94 0 0 0 .39-.359q.153-.232.235-.547c.05-.219.078-.445.078-.687m0 0"/><path id="y" d="M4.266-3.328q0-.31-.047-.531a.8.8 0 0 0-.125-.344.5.5 0 0 0-.219-.203.55.55 0 0 0-.281-.078q-.3.002-.61.25-.297.236-.671.78V0H.968v-5.453h1.187l.047.797q.14-.217.297-.375.17-.17.375-.297.216-.123.469-.188.247-.06.547-.062.419 0 .734.14.328.141.531.422.217.281.328.704.106.42.094.984Zm0 0"/><path id="A" d="M5.766-3.547q0 .878-.188 1.563-.187.673-.562 1.14a2.4 2.4 0 0 1-.875.719 2.74 2.74 0 0 1-1.188.25q-.58-.002-1.078-.203a2.1 2.1 0 0 1-.844-.64Q.685-1.154.484-1.845.281-2.53.281-3.469q0-.872.188-1.547.2-.686.562-1.156.36-.467.875-.719c.352-.164.754-.25 1.203-.25q.576.002 1.063.204.482.205.828.64.357.44.563 1.125c.132.45.203.992.203 1.625m-4.157.031v.391L4.25-5.031q-.189-.529-.5-.782a1.14 1.14 0 0 0-.719-.25q-.314.002-.578.157-.25.14-.437.468a2.7 2.7 0 0 0-.297.797 5 5 0 0 0-.11 1.125m2.829.016v-.359L1.813-1.97q.169.518.484.766.311.251.734.25.295 0 .547-.14.265-.153.453-.47c.133-.218.235-.484.297-.796.07-.32.11-.703.11-1.141m0 0"/><path id="B" d="M4.172.125.547-2.922l3.625-3.047.828.844-2.656 2.188L5-.72Zm0 0"/><path id="C" d="M.719-3.469v-1.047h4.61v1.047Zm0 2.11v-1.032h4.61v1.032Zm0 0"/><path id="E" d="M5.5-3.14c0 .085-.008.199-.016.343 0 .149-.007.281-.015.406H1.875q-.001.362.11.641c.07.18.175.328.312.453.133.117.297.211.484.281q.281.094.625.094.404 0 .86-.062.45-.062.937-.203v1.046l-.453.11c-.168.031-.34.054-.516.078q-.252.045-.515.062c-.18.008-.344.016-.5.016Q2.592.124 2.094-.047a2.3 2.3 0 0 1-.844-.531 2.3 2.3 0 0 1-.531-.844 3.7 3.7 0 0 1-.172-1.187q-.002-.668.172-1.22.188-.543.515-.937.342-.387.813-.593.481-.219 1.062-.22.592 0 1.032.188c.3.118.55.282.75.5q.293.316.453.766c.101.305.156.633.156.984m-1.328-.188q0-.328-.094-.563a1.1 1.1 0 0 0-.234-.406.8.8 0 0 0-.344-.219 1.1 1.1 0 0 0-.406-.078q-.502 0-.828.328c-.211.22-.328.532-.36.938Zm0 0"/><path id="F" d="M.984 0v-7.016H5.22v1.11H2.33v1.75h2.75v1.093H2.33v1.938h2.89V0Zm0 0"/><path id="G" d="M9.094-.469Q7.858.188 6 .188 3.608.19 2.172-1.344.732-2.89.734-5.39q0-2.684 1.61-4.343 1.624-1.655 4.11-1.657 1.592.001 2.64.454v1.406a5.4 5.4 0 0 0-2.656-.672q-1.924 0-3.125 1.297Q2.107-7.624 2.109-5.47q0 2.048 1.125 3.266C3.984-1.398 4.961-1 6.172-1q1.687 0 2.922-.75Zm0 0"/><path id="H" d="M4.688-3.219q-.001.785-.125 1.406-.113.61-.375 1.032-.252.422-.657.656-.393.218-.969.219-.719 0-1.187-.39C1.07-.556.844-.93.688-1.423Q.453-2.173.453-3.22q0-1.029.203-1.765.216-.75.672-1.141.468-.405 1.235-.406.733 0 1.203.406.466.393.687 1.125.234.738.234 1.781m-3.5 0c0 .594.039 1.094.125 1.5q.139.599.437.89.31.299.813.298.498 0 .796-.297.312-.293.454-.89.14-.61.14-1.5t-.14-1.485c-.094-.395-.243-.692-.438-.89q-.299-.296-.812-.298c-.336 0-.606.102-.813.297q-.299.3-.437.89c-.086.4-.125.891-.125 1.485m0 0"/><path id="I" d="M4.453 0H.875v-6.422h3.578v.656H1.625v2.079h2.672v.656H1.625v2.375h2.828Zm0 0"/><path id="J" d="M3.156 0h-.703v-5.344q.013-.153.031-.312a3 3 0 0 1-.265.234q-.11.096-.297.25l-.719.578-.39-.484 1.734-1.344h.61Zm0 0"/><path id="K" d="M2.625-4.906q.608 0 1.047.281.45.269.672.766.234.485.234 1.14v.453H1.25q.012.845.422 1.297.42.439 1.156.438.451.001.797-.078.357-.094.75-.25v.64q-.376.159-.734.235-.364.077-.844.078-.69 0-1.203-.281a2.06 2.06 0 0 1-.813-.844Q.501-1.578.5-2.375c0-.52.086-.969.266-1.344q.264-.575.734-.875.48-.311 1.125-.312m-.016.593q-.58.002-.921.391-.347.376-.422 1.063h2.547q0-.423-.126-.75a1.1 1.1 0 0 0-.39-.516c-.18-.125-.406-.187-.688-.187m0 0"/><path id="M" d="M2.484.094Q1.56.095 1.031-.531.5-1.153.5-2.391q-.002-1.248.547-1.875.545-.639 1.453-.64.375.002.656.11.295.093.5.265.201.175.344.375h.063a1.7 1.7 0 0 1-.047-.36A6 6 0 0 1 4-4.906v-1.938h.734V0h-.593l-.11-.687H4q-.129.221-.344.39-.205.176-.5.281c-.187.07-.414.11-.672.11m.11-.61q.779.001 1.094-.437.328-.434.328-1.313v-.125q-.001-.92-.313-1.406-.3-.499-1.11-.5-.673 0-1.015.516-.328.516-.328 1.406c0 .594.11 1.055.328 1.375q.342.485 1.016.484m0 0"/><path id="L" d="M6.86-6.86H4.468V0H2.562v-6.86H.188v-1.546h6.671Zm0 0"/><path id="N" d="M1.078 0v-8.562h1.813V-1.5h3.484V0Zm0 0"/><path id="O" d="M8.094 0H6.28v-3.703H2.89V0H1.078v-8.562h1.813v3.359h3.39v-3.36h1.813Zm0 0"/><clipPath id="a"><path d="M0 0h252v229.922H0Zm0 0"/></clipPath></defs><g clip-path="url(#a)"><path fill="#fff" d="M0 0h252v229.922H0Zm0 0"/></g><path fill="#fff" d="M-25.2-23h302.4v276H-25.2z"/><path d="m32.156 98.168 10.668 14.195-1.199.903L30.957 99.07Zm11.867 12.043 1.207 6.602-6.003-2.997Zm0 0"/><path fill="#e97132" fill-rule="evenodd" d="M127.777 67.797c0-7.582 6.149-13.73 13.735-13.73 7.582 0 13.73 6.148 13.73 13.73 0 7.586-6.148 13.734-13.73 13.734-7.586 0-13.735-6.148-13.735-13.734m0 0"/><path fill="none" stroke="#000" stroke-miterlimit="8" stroke-width="1.524" d="M127.777 67.8c0-7.585 6.149-13.734 13.735-13.734 7.582 0 13.73 6.149 13.73 13.735 0 7.582-6.148 13.73-13.73 13.73-7.586 0-13.735-6.148-13.735-13.73Zm0 0"/><g fill="#fff"><use xlink:href="#b" x="135.69" y="67.68"/><use xlink:href="#c" x="140.815" y="67.68"/></g><path fill="#e97132" fill-rule="evenodd" stroke="#000" stroke-miterlimit="8" stroke-width="1.524" d="M209.238 67.457c0-7.586 6.149-13.734 13.735-13.734 7.582 0 13.73 6.148 13.73 13.734s-6.148 13.73-13.73 13.73c-7.586 0-13.735-6.144-13.735-13.73Zm0 0"/><g fill="#fff"><use xlink:href="#b" x="217.44" y="67.2"/><use xlink:href="#c" x="222.565" y="67.2"/></g><g fill="#fff"><use xlink:href="#d" x="216.275" y="75.84"/><use xlink:href="#e" x="221.15" y="75.84"/><use xlink:href="#f" x="226.025" y="75.84"/></g><g fill="#fff"><use xlink:href="#g" x="134.197" y="77.04"/><use xlink:href="#h" x="139.073" y="77.04"/><use xlink:href="#i" x="143.948" y="77.04"/></g><path d="m182.957 34.27-37.941 17.062.613 1.367 37.945-17.058Zm-37.953 14.6-4.242 5.195 6.703.278Zm39.406-12.897v13.191h-1.5V35.973Zm2.25 12.191-3 6-3-6Zm0 0"/><path fill="#e97132" fill-rule="evenodd" stroke="#000" stroke-miterlimit="8" stroke-width="1.524" d="M169.309 67.746c0-7.586 6.148-13.734 13.734-13.734s13.734 6.148 13.734 13.734c0 7.582-6.148 13.73-13.734 13.73s-13.734-6.148-13.734-13.73Zm0 0"/><g fill="#fff"><use xlink:href="#b" x="177.222" y="67.44"/><use xlink:href="#c" x="182.347" y="67.44"/></g><path d="m183.59 34.277 34.723 16.528-.645 1.355-34.723-16.527Zm34.789 14.067 4.125 5.289-6.707.129Zm0 0"/><use xlink:href="#j" x="181.222" y="76.32" fill="#fff"/><path fill="#fff" fill-rule="evenodd" stroke="#000" stroke-miterlimit="8" stroke-width="1.524" d="M169.309 121.27c0-7.54 6.109-13.645 13.644-13.645s13.645 6.105 13.645 13.645c0 7.535-6.11 13.644-13.645 13.644s-13.644-6.11-13.644-13.644Zm0 0"/><use xlink:href="#k" x="178.299" y="127.92"/><path d="M142.262 81.477v20.964h-1.5V81.477Zm2.25 19.964-3 6-3-6ZM184 81.477v20.964h-1.5V81.477Zm2.25 19.964-3 6-3-6Zm-30.883 18.985h8.942v1.5h-8.942Zm7.942-2.25 6 3-6 3Zm0 0"/><path fill="#e97132" fill-rule="evenodd" stroke="#000" stroke-miterlimit="8" stroke-width="1.524" d="M169.133 209.68c0-7.586 6.148-13.73 13.73-13.73 7.586 0 13.735 6.144 13.735 13.73s-6.149 13.734-13.735 13.734c-7.582 0-13.73-6.148-13.73-13.734Zm0 0"/><g fill="#fff"><use xlink:href="#l" x="177.669" y="209.76"/><use xlink:href="#m" x="183.544" y="209.76"/></g><g fill="#fff"><use xlink:href="#n" x="175.456" y="217.92"/><use xlink:href="#o" x="179.706" y="217.92"/><use xlink:href="#p" x="183.955" y="217.92"/><use xlink:href="#q" x="188.205" y="217.92"/></g><path d="M223.406 81.04v20.964h-1.5V81.039Zm2.25 19.964-3 6-3-6Zm0 0"/><path fill="#fff" fill-rule="evenodd" stroke="#000" stroke-miterlimit="8" stroke-width="1.524" d="M169.309 168.547c0-7.535 6.109-13.645 13.644-13.645s13.645 6.11 13.645 13.645-6.11 13.644-13.645 13.644-13.644-6.109-13.644-13.644Zm0 0"/><use xlink:href="#r" x="177.899" y="174.96"/><path d="m222.035 134.328-26 20.856.938 1.171 26.004-20.859Zm-26.629 18.477-2.804 6.093 6.558-1.414Zm-13.203-17.903-.18 14.414 1.5.02.18-14.414Zm-2.418 13.387 2.926 6.04 3.074-5.962Zm0 0"/><path fill="#00b0f0" fill-rule="evenodd" stroke="#000" stroke-miterlimit="8" stroke-width="1.524" d="m207.094 180.668 14.062-24.246 14.063 24.246Zm0 0"/><use xlink:href="#s" x="218.011" y="177.12" fill="#fff"/><path d="M196.598 167.797h12.527v1.5h-12.527Zm11.527-2.25 6 3-6 3Zm12.523 14.691-25.195 15.34.781 1.281 25.196-15.34Zm-25.511 12.899-3.563 5.68 6.684-.56Zm38.707-116.508 1.832 2.32 1.699 2.395 1.555 2.449 1.41 2.496 1.265 2.543 1.122 2.586.976 2.613.836 2.649.691 2.668.555 2.691.41 2.703.27 2.715.133 2.719-.004 2.715-.145 2.71-.285 2.7-.418 2.687-.555 2.66-.687 2.641-.828 2.606-.957 2.57-1.094 2.531-1.223 2.484-1.359 2.434-1.488 2.379-1.618 2.32-1.75 2.25-1.878 2.18-2.008 2.105-2.14 2.032-2.645 2.183-.957-1.16 2.629-2.164-.04.031 2.106-1.996-.024.028 1.98-2.079-.026.028 1.855-2.153-.023.032 1.722-2.223-.02.031 1.598-2.289-.023.031 1.469-2.343-.02.031 1.34-2.398-.02.03 1.211-2.448-.015.035 1.074-2.496-.012.035.946-2.54-.012.04.812-2.574-.011.039.683-2.602-.011.035.546-2.625-.003.04.41-2.65-.004.04.277-2.664-.004.039.145-2.672v.035l.004-2.676v.036l-.13-2.68.005.039-.27-2.676.008.04-.406-2.665.004.035-.543-2.648.007.035-.683-2.633.012.04-.825-2.61.012.035-.96-2.578.01.035-1.105-2.547.016.035-1.246-2.507.02.035-1.391-2.465.02.031-1.532-2.414.02.031-1.676-2.363.023.031-1.82-2.304Zm-6.207 78.953-6.598 1.203 2.996-6Zm0 0"/><path fill="#00b0f0" fill-rule="evenodd" stroke="#000" stroke-miterlimit="8" stroke-width="1.524" d="m128.066 180.668 14.063-24.246 14.062 24.246Zm0 0"/><use xlink:href="#s" x="138.981" y="177.12" fill="#fff"/><path d="m172.816 131.266-27.226 21.472.926 1.176 27.226-21.473Zm-27.836 19.086-2.855 6.07 6.57-1.36Zm23.473 17.445h-14.371v1.5h14.371Zm-13.371-2.25-6 3 6 3Zm-11.863 14.676 27.398 15.484-.738 1.305-27.399-15.48Zm27.633 13.03 3.75 5.563-6.7-.34Zm0 0"/><path fill="none" stroke="#00b0f0" stroke-dasharray="6.096 4.572" stroke-miterlimit="8" stroke-width="1.524" d="M11.094 51.629c0-5.133 4.164-9.297 9.3-9.297h84.43a9.297 9.297 0 0 1 9.297 9.297v136.957c0 5.137-4.16 9.3-9.297 9.3h-84.43a9.3 9.3 0 0 1-9.3-9.3Zm0 0"/><g fill="#00b0f0"><use xlink:href="#t" x="10.762" y="36.96"/><use xlink:href="#u" x="16.637" y="36.96"/></g><use xlink:href="#v" x="24.635" y="36.96" fill="#00b0f0"/><g fill="#00b0f0"><use xlink:href="#w" x="30.387" y="36.96"/><use xlink:href="#x" x="36.137" y="36.96"/><use xlink:href="#y" x="41.886" y="36.96"/><use xlink:href="#A" x="53.386" y="36.96"/><use xlink:href="#B" x="64.885" y="36.96"/><use xlink:href="#C" x="70.635" y="36.96"/><use xlink:href="#E" x="82.134" y="36.96"/><use xlink:href="#B" x="93.634" y="36.96"/><use xlink:href="#F" x="105.133" y="36.96"/></g><path fill="#00b0f0" stroke="#000" stroke-miterlimit="8" stroke-width="1.524" d="M19.36 74.004h25.05V99.05H19.36Zm0 0"/><use xlink:href="#G" x="26.948" y="92.88" fill="#fff"/><path d="M26.805 59.055v9.726h-1.5v-9.726Zm2.25 8.726-3 6-3-6Zm0 0"/><use xlink:href="#H" x="23.397" y="55.2"/><path fill="#fff" fill-rule="evenodd" stroke="#000" stroke-miterlimit="8" stroke-width="1.524" d="M41.234 126.46c0-7.538 6.106-13.644 13.645-13.644 7.535 0 13.64 6.106 13.64 13.645 0 7.535-6.105 13.644-13.64 13.644-7.54 0-13.645-6.109-13.645-13.644Zm0 0"/><use xlink:href="#r" x="50.307" y="132.48"/><path d="m71.367 106.977-4.324 5.449 1.176.933 4.324-5.453Zm-5.465 3.27-1.375 6.566 6.078-2.84Zm0 0"/><use xlink:href="#I" x="72.576" y="104.88"/><path d="M32.309 98.621v45.559h-1.5V98.62Zm2.25 44.559-3 6-3-6Zm19.722-3.532L40.918 157.23l1.191.907 13.364-17.578Zm-14.55 15.422-1.243 6.594 6.02-2.96Zm28.363-24.558 2.222-.73 2.13-.778 2.023-.82 1.914-.856 1.805-.894 1.695-.93 1.59-.965 1.476-.992 1.364-1.027 1.253-1.051 1.137-1.078 1.024-1.106.906-1.129.789-1.152.672-1.172.547-1.191.421-1.204.297-1.222.168-1.227.04-1.234-.094-1.238-.227-1.235-.36-1.222-.488-1.22-.617-1.198-.75-1.188-.879-1.168-1.011-1.152-1.137-1.125-1.27-1.11-1.398-1.082-1.531-1.054-1.727-1.067-1.84-1.02-1.945-.964-2.047-.91-2.14-.86-2.239-.804-4.715-1.43-5.02-1.203-5.288-.953-6.157-.735-.175 1.493 6.133.73-.047-.008 5.246.946-.043-.008 4.98 1.191-.043-.012 4.672 1.418-.035-.011 2.21.797-.026-.012 2.117.847-.028-.011 2.02.902-.027-.016 1.918.95-.032-.016 1.809 1-.031-.016L81 97.027l-.031-.023 1.5 1.035-.035-.023 1.367 1.058-.035-.027L85 100.12l-.035-.031 1.101 1.09-.035-.035.973 1.109-.035-.047.844 1.125-.036-.05.715 1.132-.031-.059.59 1.141-.031-.062.464 1.148-.027-.07.34 1.156-.02-.078.211 1.156-.008-.078.086 1.156v-.078l-.035 1.156.004-.078-.156 1.153.016-.079-.282 1.149.024-.074-.403 1.14.028-.066-.52 1.129.031-.059-.636 1.117.031-.054-.754 1.105.031-.047-.87 1.086.034-.039-.992 1.067.035-.036-1.105 1.047.035-.027-1.219 1.023.032-.023-1.332 1 .03-.023-1.445.972.032-.02-1.559.946.027-.016-1.668.914.028-.015-1.778.883.024-.012-1.887.844.024-.012-1.996.808.023-.007-2.106.77.024-.009-2.211.727ZM49.832 83.648l-6.219 2.524 5.746 3.46Zm27.992 60.977v6.844h-1.5v-6.844Zm2.25 5.844-3 6-3-6Zm0 0"/><use xlink:href="#J" x="74.874" y="140.64"/><path d="m91.559 158.223 1.777-2.84 1.684-2.914 1.578-2.965 1.48-3.016 1.375-3.058 1.274-3.094 1.171-3.125 1.067-3.152.965-3.172.86-3.188.757-3.191.648-3.195.547-3.196.442-3.183.336-3.172.23-3.149.125-3.125.016-3.097-.286-6.055-.304-2.973-.414-2.91-.524-2.848-.629-2.785-.742-2.71-.851-2.637-.961-2.551-1.075-2.465-1.183-2.371-1.3-2.266-1.411-2.164-1.523-2.047-1.43-1.695-1.488-1.566-1.547-1.442-1.602-1.312-1.648-1.184-1.7-1.058-1.746-.93-1.785-.8-1.824-.677-1.86-.55-1.89-.422-1.918-.293-1.945-.172-1.965-.043-1.985.078-2 .207-2.011.328-2.02.45-2.027.574-2.031.695-2.032.812-2.027.938-2.023 1.055-2.012 1.175-2.004 1.293-1.988 1.41-1.973 1.532-1.953 1.644-1.938 1.766-2.21 2.254 1.07 1.05 2.195-2.238-.027.028 1.91-1.743-.024.02 1.93-1.625-.023.02 1.949-1.512-.027.02 1.964-1.395-.027.02 1.973-1.274-.028.016 1.985-1.157-.031.016 1.992-1.035-.035.015 1.996-.922-.035.016 1.992-.8-.035.011 1.992-.68-.04.012 1.989-.562-.043.011 1.98-.441-.043.008 1.97-.32-.044.003 1.953-.199-.046.004 1.937-.078h-.047l1.918.043-.047-.004 1.895.168-.051-.008 1.871.29-.047-.009 1.84.41-.047-.015 1.809.535-.047-.016 1.773.66-.047-.019 1.743.781-.047-.023 1.699.906-.043-.023 1.656 1.03-.039-.026 1.61 1.156-.036-.031 1.563 1.28-.035-.03 1.511 1.41-.035-.032 1.461 1.532-.031-.032 1.398 1.66-.027-.035 1.496 2.012-.023-.039 1.386 2.125-.023-.039 1.277 2.234-.02-.039 1.169 2.332-.02-.035 1.059 2.43-.016-.035.95 2.515-.012-.035.84 2.606-.008-.035.73 2.68-.008-.032.625 2.754-.007-.031.52 2.82-.009-.031.41 2.882-.003-.03.3 2.937v-.043l.282 6.015v-.039l-.016 3.067v-.028l-.121 3.098v-.023l-.23 3.125.003-.024-.332 3.145v-.024l-.437 3.16.004-.023-.543 3.172.004-.024-.645 3.172.004-.023-.75 3.172.008-.024-.856 3.164.008-.023-.957 3.148.008-.023-1.063 3.133.008-.024-1.16 3.102.008-.02-1.266 3.07.012-.023-1.367 3.035.012-.02-1.47 2.993.013-.023-1.57 2.945.015-.024-1.672 2.891.016-.023-1.774 2.828ZM39.105 67.437l-1.843 6.45 6.265-2.399Zm0 0"/><use xlink:href="#K" x="28.862" y="215.76"/><path d="M55.629 140.363v62.246h-1.5v-62.246Zm2.25 61.246-3 6-3-6Zm0 0"/><path fill="none" stroke="#fff" stroke-miterlimit="8" stroke-width="3.048" d="M31.48 174.3c1.426 13.247 13.383 18.423 26.7 11.56 4.289-2.208 8.375-5.512 11.843-9.57"/><path d="m30.742 174.316.395 2.43.648 2.281.88 2.078 1.097 1.875 1.308 1.657 1.496 1.425 1.676 1.196 1.832.949 1.973.7 2.101.445 2.207.183 2.305-.078 2.383-.348 2.445-.617 2.5-.894 2.543-1.176 3.34-1.961 3.2-2.363 1.562-1.344.8-.828-1.078-1.043-.777.804.05-.046-1.515 1.3.043-.035-3.144 2.324.062-.042-3.27 1.921.063-.03-2.476 1.144.062-.024-2.433.867.066-.02-2.375.599.078-.012-2.305.332.082-.008-2.214.078h.086l-2.118-.176.094.016-2.008-.426.098.028-1.879-.668.094.043-1.742-.903.09.055-1.587-1.129.083.066-1.422-1.355.074.078-1.242-1.574.058.086-1.05-1.785.046.086-.843-1.993.03.09-.62-2.195.015.086-.386-2.39Zm37.625 7.887 1.985-6.41-6.317 2.258Zm0 0"/><path fill="#fff" fill-rule="evenodd" stroke="#000" stroke-miterlimit="8" stroke-width="1.524" d="M68.414 168.879c0-7.535 6.11-13.645 13.645-13.645s13.644 6.11 13.644 13.645-6.11 13.644-13.644 13.644c-7.536 0-13.645-6.109-13.645-13.644Zm0 0"/><use xlink:href="#k" x="77.405" y="175.44"/><path fill="#00b0f0" fill-rule="evenodd" stroke="#000" stroke-miterlimit="8" stroke-width="1.524" d="m17.395 173.785 14.062-24.246 14.063 24.246Zm0 0"/><use xlink:href="#L" x="27.957" y="170.64" fill="#fff"/><path d="M32.207 173.785v28.563h-1.5v-28.563Zm2.25 27.563-3 6-3-6Zm0 0"/><use xlink:href="#M" x="52.03" y="216"/><use xlink:href="#K" x="176.249" y="44.64"/><path fill="#c1e5f5" fill-rule="evenodd" stroke="#00b0f0" stroke-dasharray="4.572 1.524" stroke-miterlimit="8" stroke-width="1.524" d="M169.887 11.293a4.59 4.59 0 0 1 4.59-4.59h18.363a4.59 4.59 0 0 1 4.59 4.59v18.363a4.59 4.59 0 0 1-4.59 4.59h-18.363a4.59 4.59 0 0 1-4.59-4.59Zm0 0"/><g fill="#00b0f0"><use xlink:href="#N" x="175.884" y="24.96"/><use xlink:href="#O" x="182.634" y="24.96"/></g><path fill="#e97132" fill-rule="evenodd" stroke="#000" stroke-miterlimit="8" stroke-width="1.524" d="M127.777 121.18c0-7.586 6.149-13.735 13.735-13.735 7.582 0 13.73 6.149 13.73 13.735 0 7.582-6.148 13.73-13.73 13.73-7.586 0-13.735-6.148-13.735-13.73Zm0 0"/><g fill="#fff"><use xlink:href="#b" x="135.69" y="121.2"/><use xlink:href="#c" x="140.815" y="121.2"/></g><g fill="#fff"><use xlink:href="#n" x="134.101" y="128.88"/><use xlink:href="#o" x="138.351" y="128.88"/><use xlink:href="#p" x="142.6" y="128.88"/><use xlink:href="#q" x="146.85" y="128.88"/></g><path fill="#e97132" fill-rule="evenodd" stroke="#000" stroke-miterlimit="8" stroke-width="1.524" d="M208.773 121.18c0-7.586 6.149-13.735 13.73-13.735 7.587 0 13.735 6.149 13.735 13.735 0 7.582-6.148 13.73-13.734 13.73-7.582 0-13.73-6.148-13.73-13.73Zm0 0"/><g fill="#fff"><use xlink:href="#b" x="216.685" y="121.2"/><use xlink:href="#c" x="221.81" y="121.2"/></g><g fill="#fff"><use xlink:href="#n" x="214.55" y="128.88"/><use xlink:href="#o" x="218.8" y="128.88"/><use xlink:href="#p" x="223.05" y="128.88"/><use xlink:href="#q" x="227.3" y="128.88"/></g></svg>