<svg xmlns="http://www.w3.org/2000/svg" xmlns:xlink="http://www.w3.org/1999/xlink" width="192" height="288" viewBox="0 0 144 216"><defs><path id="b" d="M5 0H1.016v-7.703h.89v6.89H5Zm0 0"/><path id="c" d="M1.016 0v-7.703H3.14q4.061 0 4.062 3.75 0 1.783-1.125 2.875Q4.952 0 3.047 0Zm.89-6.89v6.078h1.157q1.512 0 2.359-.813.843-.81.844-2.297c0-1.976-1.055-2.969-3.157-2.969Zm0 0"/><path id="q" d="M.656-.312v-1.063q.17.157.422.297c.176.086.36.156.547.219.188.054.375.093.563.125q.28.045.53.046.827.001 1.235-.296.422-.31.422-.891 0-.311-.14-.547a1.5 1.5 0 0 0-.391-.422 3.7 3.7 0 0 0-.563-.36q-.328-.187-.703-.374-.409-.2-.765-.406-.346-.217-.61-.47a2 2 0 0 1-.406-.562 1.9 1.9 0 0 1-.14-.765q0-.515.234-.907.234-.387.609-.64.374-.247.86-.375a4 4 0 0 1 .968-.125q1.138.001 1.672.266v1.015q-.69-.468-1.75-.469c-.2 0-.398.024-.594.063q-.298.064-.531.203a1.14 1.14 0 0 0-.375.36.97.97 0 0 0-.14.53 1.12 1.12 0 0 0 .421.907q.216.174.531.344.31.173.72.359.404.204.78.438c.25.148.461.312.641.5q.28.27.438.609.17.33.172.765-.001.564-.22.97a1.8 1.8 0 0 1-.609.64q-.376.236-.875.344a5 5 0 0 1-1.03.109q-.19-.001-.454-.031A7 7 0 0 1 1.578 0a3.5 3.5 0 0 1-.531-.125 1.2 1.2 0 0 1-.39-.187m0 0"/><path id="r" d="M5.563-6.89h-2.22V0h-.905v-6.89H.217v-.813h5.345Zm0 0"/><path id="d" d="M1.703-.656q.997.001 1.39-.485.39-.481.391-1.765-.002-1.295-.39-1.781-.394-.5-1.39-.5h-.376v4.53Zm.016-5.172q1.34.002 1.969.719.639.703.64 2.203-.001 1.488-.64 2.203Q3.06 0 1.718 0H.532v-5.828Zm0 0"/><path id="e" d="M3.797-4.219v.703a2.2 2.2 0 0 0-.61-.265 2.2 2.2 0 0 0-.64-.094c-.324 0-.57.055-.735.156q-.234.158-.234.485c0 .187.055.336.172.437q.187.141.906.281l.281.047c.352.074.626.215.813.422q.282.3.281.781c0 .43-.156.766-.468 1.016Q3.106.112 2.28.11 1.951.108 1.594.03a6 6 0 0 1-.766-.187v-.75q.404.206.766.312.375.11.703.11.481 0 .734-.188a.65.65 0 0 0 .266-.547q-.002-.498-.953-.703h-.031l-.266-.062q-.628-.107-.922-.391-.28-.292-.281-.797 0-.622.422-.969.433-.341 1.218-.343.357.002.672.062.327.064.64.203m0 0"/><path id="f" d="M2.406-5.625v1.25h1.625v.563H2.406v2.375q-.002.485.172.671.186.188.64.188h.813V0h-.875q-.814 0-1.14-.328c-.22-.219-.328-.586-.328-1.11v-2.375H.516v-.562h1.172v-1.25Zm0 0"/><path id="g" d="M3.953-5.64v.812a3 3 0 0 0-.719-.344 2.3 2.3 0 0 0-.734-.125c-.367 0-.656.09-.875.266a.82.82 0 0 0-.328.687q-.001.394.203.594.216.204.813.344l.406.094q.826.187 1.203.609c.25.273.375.64.375 1.11q0 .831-.516 1.265-.516.438-1.5.437-.421 0-.844-.093a3.7 3.7 0 0 1-.812-.25v-.844q.434.28.844.422.404.127.812.125c.395 0 .703-.086.922-.266q.328-.264.328-.75 0-.434-.234-.656c-.149-.156-.406-.274-.781-.36l-.422-.109q-.814-.17-1.188-.547-.362-.374-.36-1 0-.78.517-1.25.527-.468 1.406-.468.328 0 .703.078.373.08.781.218m0 0"/><path id="h" d="M4.516-3.469a1.6 1.6 0 0 0-.47-.265 1.7 1.7 0 0 0-.53-.079q-.674 0-1.032.422-.344.423-.343 1.22V0h-.72v-4.375h.72v.86a1.42 1.42 0 0 1 .547-.72c.25-.163.546-.25.89-.25q.263.001.485.079c.156.043.304.11.453.203Zm0 0"/><path id="i" d="M4.14-.219a2.4 2.4 0 0 1-.593.235 2 2 0 0 1-.625.093Q1.902.11 1.328-.5.766-1.11.766-2.187q0-1.08.562-1.688.574-.61 1.594-.61.31 0 .61.094.31.082.609.25v.75a1.9 1.9 0 0 0-.578-.359 1.6 1.6 0 0 0-.641-.125q-.674.002-1.047.438-.361.439-.36 1.25-.002.814.36 1.25.374.438 1.047.437.374.001.672-.11.294-.122.547-.359Zm0 0"/><path id="k" d="M0-5.828h.766l.562 4.734L2-4.234h.813l.671 3.14.563-4.734h.766L3.953 0h-.75l-.797-3.469L1.625 0h-.75Zm0 0"/><path id="j" d="M6.016-3.5v.484H1.734v.032q-.046 1.237.47 1.765.515.533 1.452.532.468 0 .985-.141a5.7 5.7 0 0 0 1.093-.469v.984a6 6 0 0 1-1.093.344 4.3 4.3 0 0 1-1 .125q-1.407 0-2.203-.843C.914-1.25.656-2.02.656-3q-.001-1.436.766-2.297c.52-.57 1.21-.86 2.078-.86.758 0 1.36.262 1.797.782q.67.768.719 1.875m-.985-.297a1.94 1.94 0 0 0-.453-1.078q-.393-.452-1.125-.453-.72.002-1.187.484a1.68 1.68 0 0 0-.5 1.063Zm0 0"/><path id="l" d="M1-6.516h7.61v1.266H1Zm3.156 4.438v-7.61h1.282v7.61Zm0 0"/><path id="s" d="m1.016-6.687 7.609-3.407v1.281l-7.61 3.329Zm0 1.609v-1.219l7.609 3.375v1.281Zm0 0"/><path id="m" d="M1.484-.562q.873 0 1.22-.422.341-.437.343-1.563-.002-1.124-.344-1.547-.345-.435-1.219-.437h-.328v3.968ZM1.5-5.11q1.17.001 1.719.625.562.626.562 1.937c0 .875-.187 1.524-.562 1.938Q2.67 0 1.5 0H.469v-5.11Zm0 0"/><path id="n" d="M1.078-3.812h1.61v3.328h1.25V0H.813v-.484h1.25v-2.844h-.985Zm.984-1.485h.626v.781h-.626Zm0 0"/><path id="o" d="M3.328-3.687v.609q-.268-.153-.547-.235a2 2 0 0 0-.562-.078q-.423 0-.64.141-.206.13-.204.422-.001.252.156.375.154.128.782.25l.265.047q.451.094.688.36c.164.179.25.405.25.687q-.001.563-.407.89Q2.716.096 2 .094c-.187 0-.387-.024-.594-.063A3.5 3.5 0 0 1 .734-.14v-.656q.34.188.657.281.326.094.625.094.406.002.64-.172a.55.55 0 0 0 .235-.468q0-.435-.844-.61l-.031-.016-.235-.046q-.55-.093-.797-.344-.251-.264-.25-.688 0-.562.375-.859c.25-.195.602-.297 1.063-.297.207 0 .406.024.594.063q.281.047.562.172m0 0"/><path id="p" d="M2.094-4.922v1.094H3.53v.484H2.094v2.078q-.002.423.156.594.169.174.563.172h.718V0h-.765Q2.045 0 1.75-.281q-.28-.282-.281-.985v-2.078H.453v-.484H1.47v-1.094Zm0 0"/><path id="t" d="M6.86-6.86H4.468V0H2.562v-6.86H.188v-1.546h6.671Zm0 0"/><clipPath id="a"><path d="M0 0h144v215.762H0Zm0 0"/></clipPath></defs><g clip-path="url(#a)"><path fill="#fff" d="M0 0h144v215.762H0Zm0 0"/></g><path fill="#fff" d="M-14.4-21.6h172.8v259.2H-14.4z"/><path fill="#e97132" fill-rule="evenodd" stroke="#000" stroke-miterlimit="8" stroke-width="1.524" d="M14.746 53.39c0-7.585 6.149-13.734 13.734-13.734 7.583 0 13.731 6.149 13.731 13.735 0 7.582-6.148 13.73-13.73 13.73-7.586 0-13.735-6.148-13.735-13.73Zm0 0"/><g fill="#fff"><use xlink:href="#b" x="22.658" y="53.28"/><use xlink:href="#c" x="27.783" y="53.28"/></g><path fill="#e97132" fill-rule="evenodd" stroke="#000" stroke-miterlimit="8" stroke-width="1.524" d="M96.207 53.047c0-7.582 6.148-13.73 13.734-13.73 7.582 0 13.73 6.148 13.73 13.73 0 7.586-6.148 13.734-13.73 13.734-7.586 0-13.734-6.148-13.734-13.734Zm0 0"/><g fill="#fff"><use xlink:href="#b" x="104.408" y="52.8"/><use xlink:href="#c" x="109.533" y="52.8"/></g><g fill="#fff"><use xlink:href="#d" x="103.244" y="61.44"/><use xlink:href="#e" x="108.119" y="61.44"/><use xlink:href="#f" x="112.994" y="61.44"/></g><g fill="#fff"><use xlink:href="#g" x="21.167" y="62.64"/><use xlink:href="#h" x="26.042" y="62.64"/><use xlink:href="#i" x="30.917" y="62.64"/></g><path d="M54.246 20.137 31.395 36.172l.859 1.226 22.851-16.03ZM30.922 33.754l-3.192 5.902 6.637-.988Zm40.457-12.191v13.19h-1.5v-13.19Zm2.25 12.19-3 6-3-6Zm0 0"/><use xlink:href="#j" x="67.315" y="16.08"/><path fill="#e97132" fill-rule="evenodd" stroke="#000" stroke-miterlimit="8" stroke-width="1.524" d="M56.277 53.336c0-7.586 6.149-13.734 13.735-13.734s13.73 6.148 13.73 13.734-6.144 13.734-13.73 13.734-13.735-6.148-13.735-13.734Zm0 0"/><g fill="#fff"><use xlink:href="#b" x="64.19" y="53.04"/><use xlink:href="#c" x="69.315" y="53.04"/></g><path d="m85.016 19.59 20.941 16.004-.91 1.191-20.942-16.004Zm21.511 13.605 2.946 6.028-6.586-1.258Zm0 0"/><use xlink:href="#k" x="68.19" y="61.92" fill="#fff"/><path fill="#fff" fill-rule="evenodd" stroke="#000" stroke-miterlimit="8" stroke-width="1.524" d="M56.277 106.86c0-7.536 6.11-13.645 13.645-13.645s13.644 6.11 13.644 13.644c0 7.536-6.109 13.645-13.644 13.645s-13.645-6.11-13.645-13.645Zm0 0"/><use xlink:href="#l" x="65.788" y="114"/><path fill="#e97132" fill-rule="evenodd" stroke="#000" stroke-miterlimit="8" stroke-width="1.524" d="M14.746 106.77c0-7.582 6.149-13.73 13.734-13.73 7.583 0 13.731 6.148 13.731 13.73 0 7.585-6.148 13.734-13.73 13.734-7.586 0-13.735-6.149-13.735-13.734Zm0 0"/><g fill="#fff"><use xlink:href="#b" x="22.658" y="106.8"/><use xlink:href="#c" x="27.783" y="106.8"/></g><g fill="#fff"><use xlink:href="#m" x="21.07" y="114.48"/><use xlink:href="#n" x="25.32" y="114.48"/><use xlink:href="#o" x="29.569" y="114.48"/><use xlink:href="#p" x="33.819" y="114.48"/></g><path d="M29.23 67.07v20.961h-1.5v-20.96Zm2.25 19.961-3 6-3-6ZM70.969 67.07v20.961h-1.5v-20.96Zm2.25 19.961-3 6-3-6ZM42.336 106.02h8.941v1.5h-8.941Zm7.941-2.25 6 3-6 3Zm0 0"/><path fill="#e97132" fill-rule="evenodd" stroke="#000" stroke-miterlimit="8" stroke-width="1.524" d="M95.742 106.77c0-7.582 6.149-13.73 13.73-13.73 7.587 0 13.735 6.148 13.735 13.73 0 7.585-6.148 13.734-13.734 13.734-7.582 0-13.73-6.149-13.73-13.734Zm0 0"/><g fill="#fff"><use xlink:href="#b" x="103.653" y="106.8"/><use xlink:href="#c" x="108.778" y="106.8"/></g><g fill="#fff"><use xlink:href="#m" x="101.52" y="114.48"/><use xlink:href="#n" x="105.769" y="114.48"/><use xlink:href="#o" x="110.019" y="114.48"/><use xlink:href="#p" x="114.269" y="114.48"/></g><path fill="#e97132" fill-rule="evenodd" stroke="#000" stroke-miterlimit="8" stroke-width="1.524" d="M56.102 195.27c0-7.582 6.148-13.73 13.734-13.73 7.582 0 13.73 6.148 13.73 13.73 0 7.585-6.148 13.734-13.73 13.734-7.586 0-13.734-6.149-13.734-13.734Zm0 0"/><g fill="#fff"><use xlink:href="#q" x="64.638" y="195.36"/><use xlink:href="#r" x="70.513" y="195.36"/></g><g fill="#fff"><use xlink:href="#m" x="62.425" y="203.52"/><use xlink:href="#n" x="66.675" y="203.52"/><use xlink:href="#o" x="70.925" y="203.52"/><use xlink:href="#p" x="75.174" y="203.52"/></g><path d="M110.375 66.629v20.965h-1.5V66.629Zm2.25 19.965-3 6-3-6Zm0 0"/><path fill="#fff" fill-rule="evenodd" stroke="#000" stroke-miterlimit="8" stroke-width="1.524" d="M56.277 154.137c0-7.535 6.11-13.645 13.645-13.645s13.644 6.11 13.644 13.645-6.109 13.644-13.644 13.644-13.645-6.11-13.645-13.644Zm0 0"/><use xlink:href="#s" x="64.868" y="160.56"/><path d="M109.004 119.918 83 140.773l.941 1.172 26.004-20.86Zm-26.629 18.477-2.805 6.093 6.559-1.414Zm-13.203-17.903-.18 14.418 1.5.02.18-14.418Zm-2.418 13.39 2.926 6.036 3.074-5.961Zm0 0"/><path fill="#00b0f0" fill-rule="evenodd" stroke="#000" stroke-miterlimit="8" stroke-width="1.524" d="m94.062 166.258 14.063-24.242 14.063 24.242Zm0 0"/><use xlink:href="#t" x="104.98" y="162.72" fill="#fff"/><path d="M83.566 153.387h12.528v1.5H83.566Zm11.528-2.25 6 3-6 3Zm12.523 14.691-25.195 15.34.781 1.281 25.192-15.34Zm-25.512 12.899-3.562 5.683 6.684-.558Zm38.708-116.504 1.832 2.316 1.699 2.395 1.554 2.449 1.41 2.5 1.262 2.543 1.121 2.582.98 2.617.837 2.645.691 2.671.555 2.688.41 2.707.27 2.71.132 2.72-.004 2.714-.144 2.711-.285 2.704-.418 2.683-.555 2.664-.687 2.637-.828 2.61-.958 2.57-1.093 2.53-1.223 2.485-1.36 2.434-1.488 2.379-1.617 2.316-1.75 2.25-1.879 2.184-2.007 2.101-2.141 2.032-2.649 2.183-.953-1.156 2.63-2.168-.04.035 2.106-2-.024.027 1.98-2.078-.027.028 1.856-2.153-.028.032 1.727-2.223-.02.031 1.594-2.285-.02.031 1.47-2.347-.02.035 1.34-2.403-.02.036 1.211-2.454-.015.036 1.074-2.497-.012.036.945-2.536-.011.036.812-2.57-.012.034.68-2.601-.008.039.547-2.629-.004.04.41-2.65-.003.04.277-2.664-.004.039.144-2.672v.039l.004-2.68v.04l-.129-2.68.004.039-.27-2.676.009.039-.407-2.668.004.04-.543-2.653.008.039-.683-2.633.011.035-.824-2.61.012.04-.965-2.582.016.035-1.106-2.547.016.035-1.246-2.508.02.036-1.391-2.465.02.035-1.532-2.418.02.035-1.676-2.363.023.031-1.82-2.305Zm-6.208 78.949-6.597 1.203 2.996-6Zm0 0"/><path fill="#00b0f0" fill-rule="evenodd" stroke="#000" stroke-miterlimit="8" stroke-width="1.524" d="m15.035 166.258 14.063-24.242 14.062 24.242Zm0 0"/><use xlink:href="#t" x="25.949" y="162.72" fill="#fff"/><path d="M59.785 116.855 32.56 138.328l.925 1.18 27.23-21.477ZM31.95 135.941l-2.851 6.075 6.566-1.364Zm23.472 17.446H41.05v1.5h14.37Zm-13.371-2.25-6 3 6 3Zm-11.863 14.679 27.398 15.48-.738 1.306-27.399-15.48Zm27.632 13.028 3.75 5.566-6.699-.34Zm0 0"/></svg>