<?xml version="1.0" encoding="UTF-8"?>
<svg xmlns="http://www.w3.org/2000/svg" xmlns:xlink="http://www.w3.org/1999/xlink" width="144pt" height="216pt" viewBox="0 0 144 216">
<defs>
<g>
<g id="glyph-0-0">
<path d="M 5 0 L 1.015625 0 L 1.015625 -7.703125 L 1.90625 -7.703125 L 1.90625 -0.8125 L 5 -0.8125 Z M 5 0 "/>
</g>
<g id="glyph-0-1">
<path d="M 1.015625 0 L 1.015625 -7.703125 L 3.140625 -7.703125 C 5.847656 -7.703125 7.203125 -6.453125 7.203125 -3.953125 C 7.203125 -2.765625 6.828125 -1.804688 6.078125 -1.078125 C 5.328125 -0.359375 4.316406 0 3.046875 0 Z M 1.90625 -6.890625 L 1.90625 -0.8125 L 3.0625 -0.8125 C 4.070312 -0.8125 4.859375 -1.082031 5.421875 -1.625 C 5.984375 -2.164062 6.265625 -2.929688 6.265625 -3.921875 C 6.265625 -5.898438 5.210938 -6.890625 3.109375 -6.890625 Z M 1.90625 -6.890625 "/>
</g>
<g id="glyph-0-2">
<path d="M 0.65625 -0.3125 L 0.65625 -1.375 C 0.769531 -1.269531 0.910156 -1.171875 1.078125 -1.078125 C 1.253906 -0.992188 1.4375 -0.921875 1.625 -0.859375 C 1.8125 -0.804688 2 -0.765625 2.1875 -0.734375 C 2.375 -0.703125 2.550781 -0.6875 2.71875 -0.6875 C 3.269531 -0.6875 3.679688 -0.785156 3.953125 -0.984375 C 4.234375 -1.191406 4.375 -1.488281 4.375 -1.875 C 4.375 -2.082031 4.328125 -2.265625 4.234375 -2.421875 C 4.140625 -2.578125 4.007812 -2.71875 3.84375 -2.84375 C 3.6875 -2.96875 3.5 -3.085938 3.28125 -3.203125 C 3.0625 -3.328125 2.828125 -3.453125 2.578125 -3.578125 C 2.304688 -3.710938 2.050781 -3.847656 1.8125 -3.984375 C 1.582031 -4.128906 1.378906 -4.285156 1.203125 -4.453125 C 1.035156 -4.617188 0.898438 -4.804688 0.796875 -5.015625 C 0.703125 -5.234375 0.65625 -5.488281 0.65625 -5.78125 C 0.65625 -6.125 0.734375 -6.425781 0.890625 -6.6875 C 1.046875 -6.945312 1.25 -7.160156 1.5 -7.328125 C 1.75 -7.492188 2.035156 -7.617188 2.359375 -7.703125 C 2.679688 -7.785156 3.003906 -7.828125 3.328125 -7.828125 C 4.085938 -7.828125 4.644531 -7.738281 5 -7.5625 L 5 -6.546875 C 4.539062 -6.859375 3.957031 -7.015625 3.25 -7.015625 C 3.050781 -7.015625 2.851562 -6.992188 2.65625 -6.953125 C 2.457031 -6.910156 2.28125 -6.84375 2.125 -6.75 C 1.96875 -6.65625 1.84375 -6.535156 1.75 -6.390625 C 1.65625 -6.242188 1.609375 -6.066406 1.609375 -5.859375 C 1.609375 -5.660156 1.644531 -5.488281 1.71875 -5.34375 C 1.789062 -5.195312 1.894531 -5.066406 2.03125 -4.953125 C 2.175781 -4.835938 2.351562 -4.722656 2.5625 -4.609375 C 2.769531 -4.492188 3.007812 -4.375 3.28125 -4.25 C 3.550781 -4.113281 3.8125 -3.96875 4.0625 -3.8125 C 4.3125 -3.664062 4.523438 -3.5 4.703125 -3.3125 C 4.890625 -3.132812 5.035156 -2.929688 5.140625 -2.703125 C 5.253906 -2.484375 5.3125 -2.226562 5.3125 -1.9375 C 5.3125 -1.5625 5.238281 -1.238281 5.09375 -0.96875 C 4.945312 -0.707031 4.742188 -0.492188 4.484375 -0.328125 C 4.234375 -0.171875 3.941406 -0.0546875 3.609375 0.015625 C 3.285156 0.0859375 2.941406 0.125 2.578125 0.125 C 2.453125 0.125 2.300781 0.113281 2.125 0.09375 C 1.945312 0.0703125 1.765625 0.0390625 1.578125 0 C 1.390625 -0.03125 1.210938 -0.0703125 1.046875 -0.125 C 0.878906 -0.175781 0.75 -0.238281 0.65625 -0.3125 Z M 0.65625 -0.3125 "/>
</g>
<g id="glyph-0-3">
<path d="M 5.5625 -6.890625 L 3.34375 -6.890625 L 3.34375 0 L 2.4375 0 L 2.4375 -6.890625 L 0.21875 -6.890625 L 0.21875 -7.703125 L 5.5625 -7.703125 Z M 5.5625 -6.890625 "/>
</g>
<g id="glyph-1-0">
<path d="M 1.703125 -0.65625 C 2.367188 -0.65625 2.832031 -0.816406 3.09375 -1.140625 C 3.351562 -1.460938 3.484375 -2.050781 3.484375 -2.90625 C 3.484375 -3.769531 3.351562 -4.363281 3.09375 -4.6875 C 2.832031 -5.019531 2.367188 -5.1875 1.703125 -5.1875 L 1.328125 -5.1875 L 1.328125 -0.65625 Z M 1.71875 -5.828125 C 2.613281 -5.828125 3.269531 -5.585938 3.6875 -5.109375 C 4.113281 -4.640625 4.328125 -3.90625 4.328125 -2.90625 C 4.328125 -1.914062 4.113281 -1.179688 3.6875 -0.703125 C 3.269531 -0.234375 2.613281 0 1.71875 0 L 0.53125 0 L 0.53125 -5.828125 Z M 1.71875 -5.828125 "/>
</g>
<g id="glyph-1-1">
<path d="M 3.796875 -4.21875 L 3.796875 -3.515625 C 3.597656 -3.640625 3.394531 -3.726562 3.1875 -3.78125 C 2.976562 -3.84375 2.765625 -3.875 2.546875 -3.875 C 2.222656 -3.875 1.976562 -3.820312 1.8125 -3.71875 C 1.65625 -3.613281 1.578125 -3.453125 1.578125 -3.234375 C 1.578125 -3.046875 1.632812 -2.898438 1.75 -2.796875 C 1.875 -2.703125 2.175781 -2.609375 2.65625 -2.515625 L 2.9375 -2.46875 C 3.289062 -2.394531 3.5625 -2.253906 3.75 -2.046875 C 3.9375 -1.847656 4.03125 -1.585938 4.03125 -1.265625 C 4.03125 -0.835938 3.875 -0.5 3.5625 -0.25 C 3.257812 -0.0078125 2.832031 0.109375 2.28125 0.109375 C 2.0625 0.109375 1.832031 0.0820312 1.59375 0.03125 C 1.363281 -0.0078125 1.109375 -0.0703125 0.828125 -0.15625 L 0.828125 -0.90625 C 1.097656 -0.769531 1.351562 -0.664062 1.59375 -0.59375 C 1.84375 -0.519531 2.078125 -0.484375 2.296875 -0.484375 C 2.617188 -0.484375 2.863281 -0.546875 3.03125 -0.671875 C 3.207031 -0.804688 3.296875 -0.988281 3.296875 -1.21875 C 3.296875 -1.550781 2.976562 -1.785156 2.34375 -1.921875 L 2.3125 -1.921875 L 2.046875 -1.984375 C 1.628906 -2.054688 1.320312 -2.1875 1.125 -2.375 C 0.9375 -2.570312 0.84375 -2.835938 0.84375 -3.171875 C 0.84375 -3.585938 0.984375 -3.910156 1.265625 -4.140625 C 1.554688 -4.367188 1.960938 -4.484375 2.484375 -4.484375 C 2.722656 -4.484375 2.945312 -4.460938 3.15625 -4.421875 C 3.375 -4.378906 3.585938 -4.3125 3.796875 -4.21875 Z M 3.796875 -4.21875 "/>
</g>
<g id="glyph-1-2">
<path d="M 2.40625 -5.625 L 2.40625 -4.375 L 4.03125 -4.375 L 4.03125 -3.8125 L 2.40625 -3.8125 L 2.40625 -1.4375 C 2.40625 -1.113281 2.460938 -0.890625 2.578125 -0.765625 C 2.703125 -0.640625 2.914062 -0.578125 3.21875 -0.578125 L 4.03125 -0.578125 L 4.03125 0 L 3.15625 0 C 2.613281 0 2.234375 -0.109375 2.015625 -0.328125 C 1.796875 -0.546875 1.6875 -0.914062 1.6875 -1.4375 L 1.6875 -3.8125 L 0.515625 -3.8125 L 0.515625 -4.375 L 1.6875 -4.375 L 1.6875 -5.625 Z M 2.40625 -5.625 "/>
</g>
<g id="glyph-1-3">
<path d="M 3.953125 -5.640625 L 3.953125 -4.828125 C 3.710938 -4.984375 3.472656 -5.097656 3.234375 -5.171875 C 2.992188 -5.253906 2.75 -5.296875 2.5 -5.296875 C 2.132812 -5.296875 1.84375 -5.207031 1.625 -5.03125 C 1.40625 -4.863281 1.296875 -4.632812 1.296875 -4.34375 C 1.296875 -4.082031 1.363281 -3.882812 1.5 -3.75 C 1.644531 -3.613281 1.914062 -3.5 2.3125 -3.40625 L 2.71875 -3.3125 C 3.269531 -3.1875 3.671875 -2.984375 3.921875 -2.703125 C 4.171875 -2.429688 4.296875 -2.0625 4.296875 -1.59375 C 4.296875 -1.039062 4.125 -0.617188 3.78125 -0.328125 C 3.4375 -0.0351562 2.9375 0.109375 2.28125 0.109375 C 2 0.109375 1.71875 0.078125 1.4375 0.015625 C 1.164062 -0.0351562 0.894531 -0.117188 0.625 -0.234375 L 0.625 -1.078125 C 0.914062 -0.890625 1.195312 -0.75 1.46875 -0.65625 C 1.738281 -0.570312 2.007812 -0.53125 2.28125 -0.53125 C 2.675781 -0.53125 2.984375 -0.617188 3.203125 -0.796875 C 3.421875 -0.972656 3.53125 -1.222656 3.53125 -1.546875 C 3.53125 -1.835938 3.453125 -2.054688 3.296875 -2.203125 C 3.148438 -2.359375 2.890625 -2.476562 2.515625 -2.5625 L 2.09375 -2.671875 C 1.550781 -2.785156 1.15625 -2.96875 0.90625 -3.21875 C 0.664062 -3.46875 0.546875 -3.800781 0.546875 -4.21875 C 0.546875 -4.738281 0.71875 -5.15625 1.0625 -5.46875 C 1.414062 -5.78125 1.882812 -5.9375 2.46875 -5.9375 C 2.6875 -5.9375 2.921875 -5.910156 3.171875 -5.859375 C 3.421875 -5.804688 3.679688 -5.734375 3.953125 -5.640625 Z M 3.953125 -5.640625 "/>
</g>
<g id="glyph-1-4">
<path d="M 4.515625 -3.46875 C 4.359375 -3.59375 4.203125 -3.679688 4.046875 -3.734375 C 3.890625 -3.785156 3.710938 -3.8125 3.515625 -3.8125 C 3.066406 -3.8125 2.722656 -3.671875 2.484375 -3.390625 C 2.253906 -3.109375 2.140625 -2.703125 2.140625 -2.171875 L 2.140625 0 L 1.421875 0 L 1.421875 -4.375 L 2.140625 -4.375 L 2.140625 -3.515625 C 2.253906 -3.828125 2.4375 -4.066406 2.6875 -4.234375 C 2.9375 -4.398438 3.234375 -4.484375 3.578125 -4.484375 C 3.753906 -4.484375 3.914062 -4.457031 4.0625 -4.40625 C 4.21875 -4.363281 4.367188 -4.296875 4.515625 -4.203125 Z M 4.515625 -3.46875 "/>
</g>
<g id="glyph-1-5">
<path d="M 4.140625 -0.21875 C 3.953125 -0.113281 3.753906 -0.0351562 3.546875 0.015625 C 3.347656 0.078125 3.140625 0.109375 2.921875 0.109375 C 2.242188 0.109375 1.710938 -0.09375 1.328125 -0.5 C 0.953125 -0.90625 0.765625 -1.46875 0.765625 -2.1875 C 0.765625 -2.90625 0.953125 -3.46875 1.328125 -3.875 C 1.710938 -4.28125 2.242188 -4.484375 2.921875 -4.484375 C 3.128906 -4.484375 3.332031 -4.453125 3.53125 -4.390625 C 3.738281 -4.335938 3.941406 -4.253906 4.140625 -4.140625 L 4.140625 -3.390625 C 3.953125 -3.554688 3.757812 -3.675781 3.5625 -3.75 C 3.375 -3.832031 3.160156 -3.875 2.921875 -3.875 C 2.472656 -3.875 2.125 -3.726562 1.875 -3.4375 C 1.632812 -3.144531 1.515625 -2.726562 1.515625 -2.1875 C 1.515625 -1.644531 1.632812 -1.226562 1.875 -0.9375 C 2.125 -0.644531 2.472656 -0.5 2.921875 -0.5 C 3.171875 -0.5 3.394531 -0.535156 3.59375 -0.609375 C 3.789062 -0.691406 3.972656 -0.8125 4.140625 -0.96875 Z M 4.140625 -0.21875 "/>
</g>
<g id="glyph-1-6">
<path d="M 0 -5.828125 L 0.765625 -5.828125 L 1.328125 -1.09375 L 2 -4.234375 L 2.8125 -4.234375 L 3.484375 -1.09375 L 4.046875 -5.828125 L 4.8125 -5.828125 L 3.953125 0 L 3.203125 0 L 2.40625 -3.46875 L 1.625 0 L 0.875 0 Z M 0 -5.828125 "/>
</g>
<g id="glyph-2-0">
<path d="M 6.015625 -3.5 L 6.015625 -3.015625 L 1.734375 -3.015625 L 1.734375 -2.984375 C 1.703125 -2.160156 1.859375 -1.570312 2.203125 -1.21875 C 2.546875 -0.863281 3.03125 -0.6875 3.65625 -0.6875 C 3.96875 -0.6875 4.296875 -0.734375 4.640625 -0.828125 C 4.984375 -0.929688 5.347656 -1.085938 5.734375 -1.296875 L 5.734375 -0.3125 C 5.359375 -0.15625 4.992188 -0.0390625 4.640625 0.03125 C 4.296875 0.113281 3.960938 0.15625 3.640625 0.15625 C 2.703125 0.15625 1.96875 -0.125 1.4375 -0.6875 C 0.914062 -1.25 0.65625 -2.019531 0.65625 -3 C 0.65625 -3.957031 0.910156 -4.722656 1.421875 -5.296875 C 1.941406 -5.867188 2.632812 -6.15625 3.5 -6.15625 C 4.257812 -6.15625 4.859375 -5.894531 5.296875 -5.375 C 5.742188 -4.863281 5.984375 -4.238281 6.015625 -3.5 Z M 5.03125 -3.796875 C 4.988281 -4.210938 4.835938 -4.570312 4.578125 -4.875 C 4.316406 -5.175781 3.941406 -5.328125 3.453125 -5.328125 C 2.972656 -5.328125 2.578125 -5.164062 2.265625 -4.84375 C 1.960938 -4.53125 1.796875 -4.175781 1.765625 -3.78125 Z M 5.03125 -3.796875 "/>
</g>
<g id="glyph-3-0">
<path d="M 1 -6.515625 L 8.609375 -6.515625 L 8.609375 -5.25 L 1 -5.25 Z M 4.15625 -2.078125 L 4.15625 -9.6875 L 5.4375 -9.6875 L 5.4375 -2.078125 Z M 4.15625 -2.078125 "/>
</g>
<g id="glyph-3-1">
<path d="M 1.015625 -6.6875 L 8.625 -10.09375 L 8.625 -8.8125 L 1.015625 -5.484375 Z M 1.015625 -5.078125 L 1.015625 -6.296875 L 8.625 -2.921875 L 8.625 -1.640625 Z M 1.015625 -5.078125 "/>
</g>
<g id="glyph-4-0">
<path d="M 1.484375 -0.5625 C 2.066406 -0.5625 2.472656 -0.703125 2.703125 -0.984375 C 2.929688 -1.273438 3.046875 -1.796875 3.046875 -2.546875 C 3.046875 -3.296875 2.929688 -3.8125 2.703125 -4.09375 C 2.472656 -4.382812 2.066406 -4.53125 1.484375 -4.53125 L 1.15625 -4.53125 L 1.15625 -0.5625 Z M 1.5 -5.109375 C 2.28125 -5.109375 2.851562 -4.898438 3.21875 -4.484375 C 3.59375 -4.066406 3.78125 -3.421875 3.78125 -2.546875 C 3.78125 -1.671875 3.59375 -1.023438 3.21875 -0.609375 C 2.851562 -0.203125 2.28125 0 1.5 0 L 0.46875 0 L 0.46875 -5.109375 Z M 1.5 -5.109375 "/>
</g>
<g id="glyph-4-1">
<path d="M 1.078125 -3.8125 L 2.6875 -3.8125 L 2.6875 -0.484375 L 3.9375 -0.484375 L 3.9375 0 L 0.8125 0 L 0.8125 -0.484375 L 2.0625 -0.484375 L 2.0625 -3.328125 L 1.078125 -3.328125 Z M 2.0625 -5.296875 L 2.6875 -5.296875 L 2.6875 -4.515625 L 2.0625 -4.515625 Z M 2.0625 -5.296875 "/>
</g>
<g id="glyph-4-2">
<path d="M 3.328125 -3.6875 L 3.328125 -3.078125 C 3.148438 -3.179688 2.96875 -3.257812 2.78125 -3.3125 C 2.601562 -3.363281 2.414062 -3.390625 2.21875 -3.390625 C 1.9375 -3.390625 1.722656 -3.34375 1.578125 -3.25 C 1.441406 -3.164062 1.375 -3.023438 1.375 -2.828125 C 1.375 -2.660156 1.425781 -2.535156 1.53125 -2.453125 C 1.632812 -2.367188 1.894531 -2.285156 2.3125 -2.203125 L 2.578125 -2.15625 C 2.878906 -2.09375 3.109375 -1.972656 3.265625 -1.796875 C 3.429688 -1.617188 3.515625 -1.390625 3.515625 -1.109375 C 3.515625 -0.734375 3.378906 -0.4375 3.109375 -0.21875 C 2.847656 -0.0078125 2.476562 0.09375 2 0.09375 C 1.8125 0.09375 1.613281 0.0703125 1.40625 0.03125 C 1.195312 0 0.972656 -0.0546875 0.734375 -0.140625 L 0.734375 -0.796875 C 0.960938 -0.671875 1.179688 -0.578125 1.390625 -0.515625 C 1.609375 -0.453125 1.816406 -0.421875 2.015625 -0.421875 C 2.285156 -0.421875 2.5 -0.476562 2.65625 -0.59375 C 2.8125 -0.707031 2.890625 -0.863281 2.890625 -1.0625 C 2.890625 -1.351562 2.609375 -1.554688 2.046875 -1.671875 L 2.015625 -1.6875 L 1.78125 -1.734375 C 1.414062 -1.796875 1.148438 -1.910156 0.984375 -2.078125 C 0.816406 -2.253906 0.734375 -2.484375 0.734375 -2.765625 C 0.734375 -3.140625 0.859375 -3.425781 1.109375 -3.625 C 1.359375 -3.820312 1.710938 -3.921875 2.171875 -3.921875 C 2.378906 -3.921875 2.578125 -3.898438 2.765625 -3.859375 C 2.953125 -3.828125 3.140625 -3.769531 3.328125 -3.6875 Z M 3.328125 -3.6875 "/>
</g>
<g id="glyph-4-3">
<path d="M 2.09375 -4.921875 L 2.09375 -3.828125 L 3.53125 -3.828125 L 3.53125 -3.34375 L 2.09375 -3.34375 L 2.09375 -1.265625 C 2.09375 -0.984375 2.144531 -0.785156 2.25 -0.671875 C 2.363281 -0.554688 2.550781 -0.5 2.8125 -0.5 L 3.53125 -0.5 L 3.53125 0 L 2.765625 0 C 2.285156 0 1.945312 -0.09375 1.75 -0.28125 C 1.5625 -0.46875 1.46875 -0.796875 1.46875 -1.265625 L 1.46875 -3.34375 L 0.453125 -3.34375 L 0.453125 -3.828125 L 1.46875 -3.828125 L 1.46875 -4.921875 Z M 2.09375 -4.921875 "/>
</g>
<g id="glyph-5-0">
<path d="M 6.859375 -6.859375 L 4.46875 -6.859375 L 4.46875 0 L 2.5625 0 L 2.5625 -6.859375 L 0.1875 -6.859375 L 0.1875 -8.40625 L 6.859375 -8.40625 Z M 6.859375 -6.859375 "/>
</g>
</g>
<clipPath id="clip-0">
<path clip-rule="nonzero" d="M 0 0 L 144 0 L 144 215.761719 L 0 215.761719 Z M 0 0 "/>
</clipPath>
</defs>
<g clip-path="url(#clip-0)">
<path fill-rule="nonzero" fill="rgb(100%, 100%, 100%)" fill-opacity="1" d="M 0 0 L 144 0 L 144 215.761719 L 0 215.761719 Z M 0 0 "/>
</g>
<rect x="-14.4" y="-21.6" width="172.8" height="259.2" fill="rgb(100%, 100%, 100%)" fill-opacity="1"/>
<path fill-rule="evenodd" fill="rgb(91.372681%, 44.313049%, 19.607544%)" fill-opacity="1" stroke-width="19050" stroke-linecap="butt" stroke-linejoin="miter" stroke="rgb(0%, 0%, 0%)" stroke-opacity="1" stroke-miterlimit="8" d="M -5.667375 174411.951919 C -5.667375 78070.548752 78079.486376 -14.605 174420.889544 -14.605 C 270712.683337 -14.605 348797.837088 78070.548752 348797.837088 174411.951919 C 348797.837088 270703.745712 270712.683337 348788.899464 174420.889544 348788.899464 C 78079.486376 348788.899464 -5.667375 270703.745712 -5.667375 174411.951919 Z M -5.667375 174411.951919 " transform="matrix(0.0000787402, 0, 0, 0.0000787402, 14.74654, 39.6574)"/>
<g fill="rgb(100%, 100%, 100%)" fill-opacity="1">
<use xlink:href="#glyph-0-0" x="22.65842" y="53.27999"/>
<use xlink:href="#glyph-0-1" x="27.78332" y="53.27999"/>
</g>
<path fill-rule="evenodd" fill="rgb(91.372681%, 44.313049%, 19.607544%)" fill-opacity="1" stroke-width="19050" stroke-linecap="butt" stroke-linejoin="miter" stroke="rgb(0%, 0%, 0%)" stroke-opacity="1" stroke-miterlimit="8" d="M -3.667125 174390.996919 C -3.667125 78099.203126 78081.486626 14.049375 174422.889793 14.049375 C 270714.683587 14.049375 348799.837338 78099.203126 348799.837338 174390.996919 C 348799.837338 270732.400087 270714.683587 348817.553838 174422.889793 348817.553838 C 78081.486626 348817.553838 -3.667125 270732.400087 -3.667125 174390.996919 Z M -3.667125 174390.996919 " transform="matrix(0.0000787402, 0, 0, 0.0000787402, 96.20732, 39.3153)"/>
<g fill="rgb(100%, 100%, 100%)" fill-opacity="1">
<use xlink:href="#glyph-0-0" x="104.4082" y="52.79999"/>
<use xlink:href="#glyph-0-1" x="109.5331" y="52.79999"/>
</g>
<g fill="rgb(100%, 100%, 100%)" fill-opacity="1">
<use xlink:href="#glyph-1-0" x="103.244" y="61.43999"/>
<use xlink:href="#glyph-1-1" x="108.1192" y="61.43999"/>
<use xlink:href="#glyph-1-2" x="112.994399" y="61.43999"/>
</g>
<g fill="rgb(100%, 100%, 100%)" fill-opacity="1">
<use xlink:href="#glyph-1-3" x="21.16661" y="62.63999"/>
<use xlink:href="#glyph-1-4" x="26.04181" y="62.63999"/>
<use xlink:href="#glyph-1-5" x="30.917009" y="62.63999"/>
</g>
<path fill-rule="nonzero" fill="rgb(0%, 0%, 0%)" fill-opacity="1" d="M 54.246094 20.136719 L 31.394531 36.171875 L 32.253906 37.398438 L 55.105469 21.367188 Z M 30.921875 33.753906 L 27.730469 39.65625 L 34.367188 38.667969 Z M 30.921875 33.753906 "/>
<path fill-rule="nonzero" fill="rgb(0%, 0%, 0%)" fill-opacity="1" d="M 71.378906 21.5625 L 71.378906 34.753906 L 69.878906 34.753906 L 69.878906 21.5625 Z M 73.628906 33.753906 L 70.628906 39.753906 L 67.628906 33.753906 Z M 73.628906 33.753906 "/>
<g fill="rgb(0%, 0%, 0%)" fill-opacity="1">
<use xlink:href="#glyph-2-0" x="67.31527" y="16.07999"/>
</g>
<path fill-rule="evenodd" fill="rgb(91.372681%, 44.313049%, 19.607544%)" fill-opacity="1" stroke-width="19050" stroke-linecap="butt" stroke-linejoin="miter" stroke="rgb(0%, 0%, 0%)" stroke-opacity="1" stroke-miterlimit="8" d="M -14.684375 174401.950669 C -14.684375 78060.547502 78070.469377 -24.606249 174411.872544 -24.606249 C 270753.275711 -24.606249 348788.820089 78060.547502 348788.820089 174401.950669 C 348788.820089 270743.353836 270753.275711 348828.507587 174411.872544 348828.507587 C 78070.469377 348828.507587 -14.684375 270743.353836 -14.684375 174401.950669 Z M -14.684375 174401.950669 " transform="matrix(0.0000787402, 0, 0, 0.0000787402, 56.2785, 39.6035)"/>
<g fill="rgb(100%, 100%, 100%)" fill-opacity="1">
<use xlink:href="#glyph-0-0" x="64.19039" y="53.03999"/>
<use xlink:href="#glyph-0-1" x="69.31529" y="53.03999"/>
</g>
<path fill-rule="nonzero" fill="rgb(0%, 0%, 0%)" fill-opacity="1" d="M 85.015625 19.589844 L 105.957031 35.59375 L 105.046875 36.785156 L 84.105469 20.78125 Z M 106.527344 33.195312 L 109.472656 39.222656 L 102.886719 37.964844 Z M 106.527344 33.195312 "/>
<g fill="rgb(100%, 100%, 100%)" fill-opacity="1">
<use xlink:href="#glyph-1-6" x="68.19023" y="61.91999"/>
</g>
<path fill-rule="evenodd" fill="rgb(100%, 100%, 100%)" fill-opacity="1" stroke-width="19050" stroke-linecap="butt" stroke-linejoin="miter" stroke="rgb(0%, 0%, 0%)" stroke-opacity="1" stroke-miterlimit="8" d="M -13.668375 173294.986955 C -13.668375 77598.505642 77575.391643 9.445625 173271.872955 9.445625 C 268968.354268 9.445625 346557.414285 77598.505642 346557.414285 173294.986955 C 346557.414285 268991.468267 268968.354268 346580.528284 173271.872955 346580.528284 C 77575.391643 346580.528284 -13.668375 268991.468267 -13.668375 173294.986955 Z M -13.668375 173294.986955 " transform="matrix(0.0000787402, 0, 0, 0.0000787402, 56.27842, 93.2141)"/>
<g fill="rgb(0%, 0%, 0%)" fill-opacity="1">
<use xlink:href="#glyph-3-0" x="65.78834" y="114"/>
</g>
<path fill-rule="evenodd" fill="rgb(91.372681%, 44.313049%, 19.607544%)" fill-opacity="1" stroke-width="19050" stroke-linecap="butt" stroke-linejoin="miter" stroke="rgb(0%, 0%, 0%)" stroke-opacity="1" stroke-miterlimit="8" d="M -5.667375 174400.601294 C -5.667375 78108.807501 78079.486376 23.653749 174420.889544 23.653749 C 270712.683337 23.653749 348797.837088 78108.807501 348797.837088 174400.601294 C 348797.837088 270742.004461 270712.683337 348827.158213 174420.889544 348827.158213 C 78079.486376 348827.158213 -5.667375 270742.004461 -5.667375 174400.601294 Z M -5.667375 174400.601294 " transform="matrix(0.0000787402, 0, 0, 0.0000787402, 14.74654, 93.0372)"/>
<g fill="rgb(100%, 100%, 100%)" fill-opacity="1">
<use xlink:href="#glyph-0-0" x="22.65842" y="106.8"/>
<use xlink:href="#glyph-0-1" x="27.78332" y="106.8"/>
</g>
<g fill="rgb(100%, 100%, 100%)" fill-opacity="1">
<use xlink:href="#glyph-4-0" x="21.07" y="114.48"/>
<use xlink:href="#glyph-4-1" x="25.3197" y="114.48"/>
<use xlink:href="#glyph-4-2" x="29.569401" y="114.48"/>
<use xlink:href="#glyph-4-3" x="33.819101" y="114.48"/>
</g>
<path fill-rule="nonzero" fill="rgb(0%, 0%, 0%)" fill-opacity="1" d="M 29.230469 67.070312 L 29.230469 88.03125 L 27.730469 88.03125 L 27.730469 67.070312 Z M 31.480469 87.03125 L 28.480469 93.03125 L 25.480469 87.03125 Z M 31.480469 87.03125 "/>
<path fill-rule="nonzero" fill="rgb(0%, 0%, 0%)" fill-opacity="1" d="M 70.96875 67.070312 L 70.96875 88.03125 L 69.46875 88.03125 L 69.46875 67.070312 Z M 73.21875 87.03125 L 70.21875 93.03125 L 67.21875 87.03125 Z M 73.21875 87.03125 "/>
<path fill-rule="nonzero" fill="rgb(0%, 0%, 0%)" fill-opacity="1" d="M 42.335938 106.019531 L 51.277344 106.019531 L 51.277344 107.519531 L 42.335938 107.519531 Z M 50.277344 103.769531 L 56.277344 106.769531 L 50.277344 109.769531 Z M 50.277344 103.769531 "/>
<path fill-rule="evenodd" fill="rgb(91.372681%, 44.313049%, 19.607544%)" fill-opacity="1" stroke-width="19050" stroke-linecap="butt" stroke-linejoin="miter" stroke="rgb(0%, 0%, 0%)" stroke-opacity="1" stroke-miterlimit="8" d="M 9.74725 174400.601294 C 9.74725 78108.807501 78094.901001 23.653749 174386.694795 23.653749 C 270728.097962 23.653749 348813.251713 78108.807501 348813.251713 174400.601294 C 348813.251713 270742.004461 270728.097962 348827.158213 174386.694795 348827.158213 C 78094.901001 348827.158213 9.74725 270742.004461 9.74725 174400.601294 Z M 9.74725 174400.601294 " transform="matrix(0.0000787402, 0, 0, 0.0000787402, 95.74142, 93.0372)"/>
<g fill="rgb(100%, 100%, 100%)" fill-opacity="1">
<use xlink:href="#glyph-0-0" x="103.6533" y="106.8"/>
<use xlink:href="#glyph-0-1" x="108.7782" y="106.8"/>
</g>
<g fill="rgb(100%, 100%, 100%)" fill-opacity="1">
<use xlink:href="#glyph-4-0" x="101.5196" y="114.48"/>
<use xlink:href="#glyph-4-1" x="105.7693" y="114.48"/>
<use xlink:href="#glyph-4-2" x="110.019001" y="114.48"/>
<use xlink:href="#glyph-4-3" x="114.268701" y="114.48"/>
</g>
<path fill-rule="evenodd" fill="rgb(91.372681%, 44.313049%, 19.607544%)" fill-opacity="1" stroke-width="19050" stroke-linecap="butt" stroke-linejoin="miter" stroke="rgb(0%, 0%, 0%)" stroke-opacity="1" stroke-miterlimit="8" d="M 0.79375 174382.186295 C 0.79375 78090.392501 78085.947501 5.23875 174427.350668 5.23875 C 270719.144462 5.23875 348804.298213 78090.392501 348804.298213 174382.186295 C 348804.298213 270723.589462 270719.144462 348808.743213 174427.350668 348808.743213 C 78085.947501 348808.743213 0.79375 270723.589462 0.79375 174382.186295 Z M 0.79375 174382.186295 " transform="matrix(0.0000787402, 0, 0, 0.0000787402, 56.1015, 181.53865)"/>
<g fill="rgb(100%, 100%, 100%)" fill-opacity="1">
<use xlink:href="#glyph-0-2" x="64.63838" y="195.36"/>
<use xlink:href="#glyph-0-3" x="70.51348" y="195.36"/>
</g>
<g fill="rgb(100%, 100%, 100%)" fill-opacity="1">
<use xlink:href="#glyph-4-0" x="62.42519" y="203.52"/>
<use xlink:href="#glyph-4-1" x="66.67489" y="203.52"/>
<use xlink:href="#glyph-4-2" x="70.924591" y="203.52"/>
<use xlink:href="#glyph-4-3" x="75.174291" y="203.52"/>
</g>
<path fill-rule="nonzero" fill="rgb(0%, 0%, 0%)" fill-opacity="1" d="M 110.375 66.628906 L 110.375 87.59375 L 108.875 87.59375 L 108.875 66.628906 Z M 112.625 86.59375 L 109.625 92.59375 L 106.625 86.59375 Z M 112.625 86.59375 "/>
<path fill-rule="evenodd" fill="rgb(100%, 100%, 100%)" fill-opacity="1" stroke-width="19050" stroke-linecap="butt" stroke-linejoin="miter" stroke="rgb(0%, 0%, 0%)" stroke-opacity="1" stroke-miterlimit="8" d="M -13.668375 173287.28758 C -13.668375 77590.806267 77575.391643 1.74625 173271.872955 1.74625 C 268968.354268 1.74625 346557.414285 77590.806267 346557.414285 173287.28758 C 346557.414285 268983.768893 268968.354268 346572.82891 173271.872955 346572.82891 C 77575.391643 346572.82891 -13.668375 268983.768893 -13.668375 173287.28758 Z M -13.668375 173287.28758 " transform="matrix(0.0000787402, 0, 0, 0.0000787402, 56.27842, 140.49205)"/>
<g fill="rgb(0%, 0%, 0%)" fill-opacity="1">
<use xlink:href="#glyph-3-1" x="64.86787" y="160.56"/>
</g>
<path fill-rule="nonzero" fill="rgb(0%, 0%, 0%)" fill-opacity="1" d="M 109.003906 119.917969 L 83 140.773438 L 83.941406 141.945312 L 109.945312 121.085938 Z M 82.375 138.394531 L 79.570312 144.488281 L 86.128906 143.074219 Z M 82.375 138.394531 "/>
<path fill-rule="nonzero" fill="rgb(0%, 0%, 0%)" fill-opacity="1" d="M 69.171875 120.492188 L 68.992188 134.910156 L 70.492188 134.929688 L 70.671875 120.511719 Z M 66.753906 133.882812 L 69.679688 139.917969 L 72.753906 133.957031 Z M 66.753906 133.882812 "/>
<path fill-rule="evenodd" fill="rgb(0%, 69.020081%, 94.117737%)" fill-opacity="1" stroke-width="19050" stroke-linecap="butt" stroke-linejoin="miter" stroke="rgb(0%, 0%, 0%)" stroke-opacity="1" stroke-miterlimit="8" d="M -17.271999 307900.218897 L 178576.472286 24.447499 L 357170.216571 307900.218897 Z M -17.271999 307900.218897 " transform="matrix(0.0000787402, 0, 0, 0.0000787402, 94.06386, 142.0137)"/>
<g fill="rgb(100%, 100%, 100%)" fill-opacity="1">
<use xlink:href="#glyph-5-0" x="104.9796" y="162.72"/>
</g>
<path fill-rule="nonzero" fill="rgb(0%, 0%, 0%)" fill-opacity="1" d="M 83.566406 153.386719 L 96.09375 153.386719 L 96.09375 154.886719 L 83.566406 154.886719 Z M 95.09375 151.136719 L 101.09375 154.136719 L 95.09375 157.136719 Z M 95.09375 151.136719 "/>
<path fill-rule="nonzero" fill="rgb(0%, 0%, 0%)" fill-opacity="1" d="M 107.617188 165.828125 L 82.421875 181.167969 L 83.203125 182.449219 L 108.394531 167.109375 Z M 82.105469 178.726562 L 78.542969 184.410156 L 85.226562 183.851562 Z M 82.105469 178.726562 "/>
<path fill-rule="nonzero" fill="rgb(0%, 0%, 0%)" fill-opacity="1" d="M 120.8125 62.222656 L 122.644531 64.539062 L 124.34375 66.933594 L 125.898438 69.382812 L 127.308594 71.882812 L 128.570312 74.425781 L 129.691406 77.007812 L 130.671875 79.625 L 131.507812 82.269531 L 132.199219 84.941406 L 132.753906 87.628906 L 133.164062 90.335938 L 133.433594 93.046875 L 133.566406 95.765625 L 133.5625 98.480469 L 133.417969 101.191406 L 133.132812 103.894531 L 132.714844 106.578125 L 132.160156 109.242188 L 131.472656 111.878906 L 130.644531 114.488281 L 129.6875 117.058594 L 128.59375 119.589844 L 127.371094 122.074219 L 126.011719 124.507812 L 124.523438 126.886719 L 122.90625 129.203125 L 121.15625 131.453125 L 119.277344 133.636719 L 117.269531 135.738281 L 115.128906 137.769531 L 112.480469 139.953125 L 111.527344 138.796875 L 114.15625 136.628906 L 114.117188 136.664062 L 116.222656 134.664062 L 116.199219 134.691406 L 118.179688 132.613281 L 118.152344 132.640625 L 120.007812 130.488281 L 119.980469 130.519531 L 121.707031 128.296875 L 121.6875 128.328125 L 123.28125 126.042969 L 123.261719 126.074219 L 124.730469 123.726562 L 124.710938 123.761719 L 126.050781 121.359375 L 126.03125 121.394531 L 127.242188 118.941406 L 127.226562 118.976562 L 128.300781 116.480469 L 128.289062 116.515625 L 129.234375 113.980469 L 129.222656 114.015625 L 130.035156 111.445312 L 130.023438 111.480469 L 130.703125 108.878906 L 130.695312 108.917969 L 131.242188 106.289062 L 131.238281 106.328125 L 131.648438 103.679688 L 131.644531 103.71875 L 131.921875 101.054688 L 131.917969 101.09375 L 132.0625 98.421875 L 132.0625 98.460938 L 132.066406 95.78125 L 132.066406 95.820312 L 131.9375 93.140625 L 131.941406 93.179688 L 131.671875 90.503906 L 131.679688 90.542969 L 131.273438 87.875 L 131.277344 87.914062 L 130.734375 85.261719 L 130.742188 85.300781 L 130.058594 82.667969 L 130.070312 82.703125 L 129.246094 80.09375 L 129.257812 80.132812 L 128.292969 77.550781 L 128.308594 77.585938 L 127.203125 75.039062 L 127.21875 75.074219 L 125.972656 72.566406 L 125.992188 72.601562 L 124.601562 70.136719 L 124.621094 70.171875 L 123.089844 67.753906 L 123.109375 67.789062 L 121.433594 65.425781 L 121.457031 65.457031 L 119.636719 63.152344 Z M 114.605469 141.171875 L 108.007812 142.375 L 111.003906 136.375 Z M 114.605469 141.171875 "/>
<path fill-rule="evenodd" fill="rgb(0%, 69.020081%, 94.117737%)" fill-opacity="1" stroke-width="19050" stroke-linecap="butt" stroke-linejoin="miter" stroke="rgb(0%, 0%, 0%)" stroke-opacity="1" stroke-miterlimit="8" d="M 24.463374 307900.218897 L 178618.207659 24.447499 L 357211.951944 307900.218897 Z M 24.463374 307900.218897 " transform="matrix(0.0000787402, 0, 0, 0.0000787402, 15.03323, 142.0137)"/>
<g fill="rgb(100%, 100%, 100%)" fill-opacity="1">
<use xlink:href="#glyph-5-0" x="25.94898" y="162.72"/>
</g>
<path fill-rule="nonzero" fill="rgb(0%, 0%, 0%)" fill-opacity="1" d="M 59.785156 116.855469 L 32.558594 138.328125 L 33.484375 139.507812 L 60.714844 118.03125 Z M 31.949219 135.941406 L 29.097656 142.015625 L 35.664062 140.652344 Z M 31.949219 135.941406 "/>
<path fill-rule="nonzero" fill="rgb(0%, 0%, 0%)" fill-opacity="1" d="M 55.421875 153.386719 L 41.050781 153.386719 L 41.050781 154.886719 L 55.421875 154.886719 Z M 42.050781 151.136719 L 36.050781 154.136719 L 42.050781 157.136719 Z M 42.050781 151.136719 "/>
<path fill-rule="nonzero" fill="rgb(0%, 0%, 0%)" fill-opacity="1" d="M 30.1875 165.816406 L 57.585938 181.296875 L 56.847656 182.601562 L 29.449219 167.121094 Z M 57.820312 178.84375 L 61.570312 184.410156 L 54.871094 184.070312 Z M 57.820312 178.84375 "/>
</svg>
