<svg width="1215" height="1975" xmlns="http://www.w3.org/2000/svg" xmlns:xlink="http://www.w3.org/1999/xlink" xml:space="preserve" overflow="hidden"><g transform="translate(-1012 -142)"><g><path d="M1038.5 643.5C1038.5 572.255 1096.48 514.5 1168 514.5 1239.52 514.5 1297.5 572.255 1297.5 643.5 1297.5 714.745 1239.52 772.5 1168 772.5 1096.48 772.5 1038.5 714.745 1038.5 643.5Z" stroke="#000000" stroke-width="6.875" stroke-linecap="butt" stroke-linejoin="miter" stroke-miterlimit="8" stroke-opacity="1" fill="#E97132" fill-rule="evenodd" fill-opacity="1"/><text fill="#FFFFFF" fill-opacity="1" font-family="Segoe UI,Segoe UI_MSFontService,sans-serif" font-style="normal" font-variant="normal" font-weight="400" font-stretch="normal" font-size="128" text-anchor="start" direction="ltr" writing-mode="lr-tb" unicode-bidi="normal" text-decoration="none" transform="matrix(1 0 0 1 1098.2 647)">LD</text><path d="M1804.5 640.5C1804.5 569.255 1862.26 511.5 1933.5 511.5 2004.74 511.5 2062.5 569.255 2062.5 640.5 2062.5 711.745 2004.74 769.5 1933.5 769.5 1862.26 769.5 1804.5 711.745 1804.5 640.5Z" stroke="#000000" stroke-width="6.875" stroke-linecap="butt" stroke-linejoin="miter" stroke-miterlimit="8" stroke-opacity="1" fill="#E97132" fill-rule="evenodd" fill-opacity="1"/><text fill="#FFFFFF" fill-opacity="1" font-family="Segoe UI,Segoe UI_MSFontService,sans-serif" font-style="normal" font-variant="normal" font-weight="400" font-stretch="normal" font-size="128" text-anchor="start" direction="ltr" writing-mode="lr-tb" unicode-bidi="normal" text-decoration="none" transform="matrix(1 0 0 1 1866.81 642)">LD</text><text fill="#FFFFFF" fill-opacity="1" font-family="Menlo,Menlo_MSFontService,sans-serif" font-style="normal" font-variant="normal" font-weight="400" font-stretch="normal" font-size="73" text-anchor="start" direction="ltr" writing-mode="lr-tb" unicode-bidi="normal" text-decoration="none" transform="matrix(1 0 0 1 1872.98 730)">Ds</text><text fill="#FFFFFF" fill-opacity="1" font-family="Menlo,Menlo_MSFontService,sans-serif" font-style="normal" font-variant="normal" font-weight="400" font-stretch="normal" font-size="73" text-anchor="start" direction="ltr" writing-mode="lr-tb" unicode-bidi="normal" text-decoration="none" transform="matrix(1 0 0 1 1961.21 730)">t</text><text fill="#FFFFFF" fill-opacity="1" font-family="Menlo,Menlo_MSFontService,sans-serif" font-style="normal" font-variant="normal" font-weight="400" font-stretch="normal" font-size="73" text-anchor="start" direction="ltr" writing-mode="lr-tb" unicode-bidi="normal" text-decoration="none" transform="matrix(1 0 0 1 1101.28 733)">Src</text><path d="M1.97437-2.81395 236.541 161.767 232.593 167.395-1.97437 2.81395ZM238.713 150.692 253.327 177.743 222.918 173.204Z" fill="#000000" fill-rule="nonzero" fill-opacity="1" transform="matrix(-1 0 0 1 1413.83 336.5)"/><path d="M1567.94 344.5 1567.94 492.62 1561.06 492.62 1561.06 344.5ZM1578.25 488.037 1564.5 515.537 1550.75 488.037Z" fill="#000000" fill-rule="nonzero" fill-opacity="1"/><text fill="#000000" fill-opacity="1" font-family="Menlo,Menlo_MSFontService,sans-serif" font-style="normal" font-variant="normal" font-weight="400" font-stretch="normal" font-size="110" text-anchor="start" direction="ltr" writing-mode="lr-tb" unicode-bidi="normal" text-decoration="none" transform="matrix(1 0 0 1 1530.51 283)">e</text><path d="M1429.5 643.5C1429.5 572.255 1487.26 514.5 1558.5 514.5 1629.74 514.5 1687.5 572.255 1687.5 643.5 1687.5 714.745 1629.74 772.5 1558.5 772.5 1487.26 772.5 1429.5 714.745 1429.5 643.5Z" stroke="#000000" stroke-width="6.875" stroke-linecap="butt" stroke-linejoin="miter" stroke-miterlimit="8" stroke-opacity="1" fill="#E97132" fill-rule="evenodd" fill-opacity="1"/><text fill="#FFFFFF" fill-opacity="1" font-family="Segoe UI,Segoe UI_MSFontService,sans-serif" font-style="normal" font-variant="normal" font-weight="400" font-stretch="normal" font-size="128" text-anchor="start" direction="ltr" writing-mode="lr-tb" unicode-bidi="normal" text-decoration="none" transform="matrix(1 0 0 1 1488.68 644)">LD</text><path d="M1697.59 328.768 1913.63 493.848 1909.46 499.31 1693.41 334.231ZM1916.25 482.871 1929.75 510.493 1899.55 504.722Z" fill="#000000" fill-rule="nonzero" fill-opacity="1"/><text fill="#FFFFFF" fill-opacity="1" font-family="Menlo,Menlo_MSFontService,sans-serif" font-style="normal" font-variant="normal" font-weight="400" font-stretch="normal" font-size="73" text-anchor="start" direction="ltr" writing-mode="lr-tb" unicode-bidi="normal" text-decoration="none" transform="matrix(1 0 0 1 1541.68 735)">W</text><path d="M1429.5 1146.5C1429.5 1075.81 1486.81 1018.5 1557.5 1018.5 1628.19 1018.5 1685.5 1075.81 1685.5 1146.5 1685.5 1217.19 1628.19 1274.5 1557.5 1274.5 1486.81 1274.5 1429.5 1217.19 1429.5 1146.5Z" stroke="#000000" stroke-width="6.875" stroke-linecap="butt" stroke-linejoin="miter" stroke-miterlimit="8" stroke-opacity="1" fill="#FFFFFF" fill-rule="evenodd" fill-opacity="1"/><text fill="#000000" fill-opacity="1" font-family="Aptos,Aptos_MSFontService,sans-serif" font-style="normal" font-variant="normal" font-weight="400" font-stretch="normal" font-size="202" text-anchor="start" direction="ltr" writing-mode="lr-tb" unicode-bidi="normal" text-decoration="none" transform="matrix(1 0 0 1 1504.5 1211)">+</text><path d="M1038.5 1145.5C1038.5 1074.26 1096.48 1016.5 1168 1016.5 1239.52 1016.5 1297.5 1074.26 1297.5 1145.5 1297.5 1216.74 1239.52 1274.5 1168 1274.5 1096.48 1274.5 1038.5 1216.74 1038.5 1145.5Z" stroke="#000000" stroke-width="6.875" stroke-linecap="butt" stroke-linejoin="miter" stroke-miterlimit="8" stroke-opacity="1" fill="#E97132" fill-rule="evenodd" fill-opacity="1"/><text fill="#FFFFFF" fill-opacity="1" font-family="Segoe UI,Segoe UI_MSFontService,sans-serif" font-style="normal" font-variant="normal" font-weight="400" font-stretch="normal" font-size="128" text-anchor="start" direction="ltr" writing-mode="lr-tb" unicode-bidi="normal" text-decoration="none" transform="matrix(1 0 0 1 1098.2 1149)">LD</text><text fill="#FFFFFF" fill-opacity="1" font-family="Menlo,Menlo_MSFontService,sans-serif" font-style="normal" font-variant="normal" font-weight="400" font-stretch="normal" font-size="64" text-anchor="start" direction="ltr" writing-mode="lr-tb" unicode-bidi="normal" text-decoration="none" transform="matrix(1 0 0 1 1090.68 1226)">Dist</text><path d="M1170.94 772.5 1170.94 993.69 1164.06 993.69 1164.06 772.5ZM1181.25 989.107 1167.5 1016.61 1153.75 989.107Z" fill="#000000" fill-rule="nonzero" fill-opacity="1"/><path d="M1563.94 772.5 1563.94 993.69 1557.06 993.69 1557.06 772.5ZM1574.25 989.107 1560.5 1016.61 1546.75 989.107Z" fill="#000000" fill-rule="nonzero" fill-opacity="1"/><path d="M1298.5 1142.06 1406.68 1142.06 1406.68 1148.94 1298.5 1148.94ZM1402.1 1131.75 1429.6 1145.5 1402.1 1159.25Z" fill="#000000" fill-rule="nonzero" fill-opacity="1"/><path d="M1800.5 1145.5C1800.5 1074.26 1858.26 1016.5 1929.5 1016.5 2000.74 1016.5 2058.5 1074.26 2058.5 1145.5 2058.5 1216.74 2000.74 1274.5 1929.5 1274.5 1858.26 1274.5 1800.5 1216.74 1800.5 1145.5Z" stroke="#000000" stroke-width="6.875" stroke-linecap="butt" stroke-linejoin="miter" stroke-miterlimit="8" stroke-opacity="1" fill="#E97132" fill-rule="evenodd" fill-opacity="1"/><text fill="#FFFFFF" fill-opacity="1" font-family="Segoe UI,Segoe UI_MSFontService,sans-serif" font-style="normal" font-variant="normal" font-weight="400" font-stretch="normal" font-size="128" text-anchor="start" direction="ltr" writing-mode="lr-tb" unicode-bidi="normal" text-decoration="none" transform="matrix(1 0 0 1 1859.72 1149)">LD</text><text fill="#FFFFFF" fill-opacity="1" font-family="Menlo,Menlo_MSFontService,sans-serif" font-style="normal" font-variant="normal" font-weight="400" font-stretch="normal" font-size="64" text-anchor="start" direction="ltr" writing-mode="lr-tb" unicode-bidi="normal" text-decoration="none" transform="matrix(1 0 0 1 1852.2 1226)">Dist</text><path d="M1427.5 1977.5C1427.5 1906.26 1485.26 1848.5 1556.5 1848.5 1627.74 1848.5 1685.5 1906.26 1685.5 1977.5 1685.5 2048.74 1627.74 2106.5 1556.5 2106.5 1485.26 2106.5 1427.5 2048.74 1427.5 1977.5Z" stroke="#000000" stroke-width="6.875" stroke-linecap="butt" stroke-linejoin="miter" stroke-miterlimit="8" stroke-opacity="1" fill="#E97132" fill-rule="evenodd" fill-opacity="1"/><text fill="#FFFFFF" fill-opacity="1" font-family="Segoe UI,Segoe UI_MSFontService,sans-serif" font-style="normal" font-variant="normal" font-weight="400" font-stretch="normal" font-size="128" text-anchor="start" direction="ltr" writing-mode="lr-tb" unicode-bidi="normal" text-decoration="none" transform="matrix(1 0 0 1 1494.47 1981)">ST</text><text fill="#FFFFFF" fill-opacity="1" font-family="Menlo,Menlo_MSFontService,sans-serif" font-style="normal" font-variant="normal" font-weight="400" font-stretch="normal" font-size="64" text-anchor="start" direction="ltr" writing-mode="lr-tb" unicode-bidi="normal" text-decoration="none" transform="matrix(1 0 0 1 1479.51 2058)">Dist</text><path d="M1933.94 768.5 1933.94 989.691 1927.06 989.691 1927.06 768.5ZM1944.25 985.107 1930.5 1012.61 1916.75 985.107Z" fill="#000000" fill-rule="nonzero" fill-opacity="1"/><path d="M1429.5 1591C1429.5 1520.03 1486.81 1462.5 1557.5 1462.5 1628.19 1462.5 1685.5 1520.03 1685.5 1591 1685.5 1661.97 1628.19 1719.5 1557.5 1719.5 1486.81 1719.5 1429.5 1661.97 1429.5 1591Z" stroke="#000000" stroke-width="6.875" stroke-linecap="butt" stroke-linejoin="miter" stroke-miterlimit="8" stroke-opacity="1" fill="#FFFFFF" fill-rule="evenodd" fill-opacity="1"/><text fill="#000000" fill-opacity="1" font-family="Aptos,Aptos_MSFontService,sans-serif" font-style="normal" font-variant="normal" font-weight="400" font-stretch="normal" font-size="202" text-anchor="start" direction="ltr" writing-mode="lr-tb" unicode-bidi="normal" text-decoration="none" transform="matrix(1 0 0 1 1504.5 1656)">&lt;</text><path d="M2.15082-2.68149 265.427 208.493 261.125 213.856-2.15082 2.68149ZM268.304 197.58 281.153 225.513 251.098 219.032Z" fill="#000000" fill-rule="nonzero" fill-opacity="1" transform="matrix(-1 0 0 1 1929.65 1274.5)"/><path d="M1560.94 1274.48 1562.03 1430.91 1555.15 1430.95 1554.06 1274.52ZM1572.31 1426.25 1558.75 1453.85 1544.81 1426.44Z" fill="#000000" fill-rule="nonzero" fill-opacity="1"/><path d="M1784.5 1704.5 1917 1476.5 2049.5 1704.5Z" stroke="#000000" stroke-width="6.875" stroke-linecap="butt" stroke-linejoin="miter" stroke-miterlimit="8" stroke-opacity="1" fill="#00B0F0" fill-rule="evenodd" fill-opacity="1"/><text fill="#FFFFFF" fill-opacity="1" font-family="Segoe UI,Segoe UI_MSFontService,sans-serif" font-style="normal" font-variant="normal" font-weight="400" font-stretch="normal" font-size="147" text-anchor="start" direction="ltr" writing-mode="lr-tb" unicode-bidi="normal" text-decoration="none" transform="matrix(1 0 0 1 1881.23 1685)">T</text><path d="M1685.5 1587.06 1827.38 1587.06 1827.38 1593.94 1685.5 1593.94ZM1822.8 1576.75 1850.3 1590.5 1822.8 1604.25Z" fill="#000000" fill-rule="nonzero" fill-opacity="1"/><path d="M1.7877-2.93607 259.246 153.823 255.67 159.696-1.7877 2.93607ZM260.694 142.632 277.032 168.677 246.392 166.12Z" fill="#000000" fill-rule="nonzero" fill-opacity="1" transform="matrix(-1 0 0 1 1915.53 1706.5)"/><path d="M2033.59 728.706 2050.78 750.455 2066.66 772.828 2081.18 795.708 2094.35 819.049 2106.16 842.805 2116.64 866.927 2125.77 891.37 2133.58 916.087 2140.05 941.03 2145.21 966.153 2149.06 991.409 2151.59 1016.75 2152.83 1042.13 2152.77 1067.51 2151.42 1092.83 2148.79 1118.05 2144.88 1143.13 2139.7 1168.01 2133.25 1192.65 2125.54 1217 2116.59 1241.02 2106.38 1264.66 2094.94 1287.87 2082.26 1310.61 2068.35 1332.83 2053.22 1354.49 2036.88 1375.53 2019.32 1395.91 2000.57 1415.58 1980.61 1434.5 1959.46 1452.62 1936.69 1470.02 1932.52 1464.55 1955.21 1447.22 1955.06 1447.34 1976.07 1429.33 1975.95 1429.45 1995.77 1410.65 1995.65 1410.77 2014.29 1391.22 2014.17 1391.35 2031.61 1371.1 2031.5 1371.24 2047.74 1350.34 2047.63 1350.48 2062.66 1328.97 2062.57 1329.11 2076.38 1307.04 2076.29 1307.19 2088.89 1284.6 2088.81 1284.76 2100.18 1261.7 2100.1 1261.86 2110.24 1238.38 2110.17 1238.54 2119.07 1214.68 2119.02 1214.84 2126.67 1190.66 2126.62 1190.82 2133.02 1166.35 2132.98 1166.52 2138.13 1141.81 2138.1 1141.98 2141.98 1117.08 2141.96 1117.25 2144.57 1092.2 2144.56 1092.38 2145.9 1067.23 2145.9 1067.4 2145.95 1042.2 2145.96 1042.38 2144.73 1017.17 2144.74 1017.35 2142.23 992.182 2142.25 992.356 2138.43 967.275 2138.46 967.449 2133.34 942.5 2133.38 942.672 2126.94 917.901 2126.99 918.072 2119.24 893.525 2119.3 893.694 2110.23 869.418 2110.29 869.583 2099.89 845.625 2099.97 845.787 2088.23 822.191 2088.32 822.349 2075.24 799.163 2075.33 799.316 2060.91 776.586 2061.01 776.734 2045.23 754.506 2045.34 754.648 2028.2 732.969ZM1946.32 1475.82 1915.94 1480.59 1930.35 1453.43Z" fill="#000000" fill-rule="nonzero" fill-opacity="1"/><path d="M1041.5 1704.5 1173.5 1476.5 1305.5 1704.5Z" stroke="#000000" stroke-width="6.875" stroke-linecap="butt" stroke-linejoin="miter" stroke-miterlimit="8" stroke-opacity="1" fill="#00B0F0" fill-rule="evenodd" fill-opacity="1"/><text fill="#FFFFFF" fill-opacity="1" font-family="Segoe UI,Segoe UI_MSFontService,sans-serif" font-style="normal" font-variant="normal" font-weight="400" font-stretch="normal" font-size="147" text-anchor="start" direction="ltr" writing-mode="lr-tb" unicode-bidi="normal" text-decoration="none" transform="matrix(1 0 0 1 1138.19 1685)">T</text><path d="M2.15082-2.68149 265.427 208.493 261.125 213.856-2.15082 2.68149ZM268.304 197.58 281.153 225.513 251.098 219.032Z" fill="#000000" fill-rule="nonzero" fill-opacity="1" transform="matrix(-1 0 0 1 1466.65 1245.5)"/><path d="M6.81226e-06-3.4375 159.191-3.43718 159.191 3.43782-6.81226e-06 3.4375ZM154.608-13.7497 182.108 0.000360892 154.608 13.7503Z" fill="#000000" fill-rule="nonzero" fill-opacity="1" transform="matrix(-1 0 0 1 1421.61 1590.5)"/><path d="M1182.19 1703.51 1460.77 1860.91 1457.39 1866.9 1178.81 1709.49ZM1461.85 1849.68 1479.03 1875.18 1448.33 1873.62Z" fill="#000000" fill-rule="nonzero" fill-opacity="1"/></g></g></svg>