<svg width="885" height="948" xmlns="http://www.w3.org/2000/svg" xmlns:xlink="http://www.w3.org/1999/xlink" xml:space="preserve" overflow="hidden"><g transform="translate(-806 -582)"><g><path d="M2.30192-2.55296 68.6447 57.2662 64.0409 62.3721-2.30192 2.55296ZM72.1465 46.5381 83.3625 75.1652 53.7312 66.9617Z" fill="#000000" fill-rule="nonzero" fill-opacity="1" transform="matrix(-1 0 0 1 1281.86 874.5)"/><rect x="1104.5" y="720.5" width="91.0001" height="91.0001" stroke="#000000" stroke-width="6.875" stroke-linecap="butt" stroke-linejoin="miter" stroke-miterlimit="8" stroke-opacity="1" fill="#00B0F0" fill-opacity="1"/><text fill="#FFFFFF" fill-opacity="1" font-family="Segoe UI,Segoe UI_MSFontService,sans-serif" font-style="normal" font-variant="normal" font-weight="400" font-stretch="normal" font-size="55" text-anchor="start" direction="ltr" writing-mode="lr-tb" unicode-bidi="normal" text-decoration="none" transform="matrix(1 0 0 1 1133.26 788)">C</text><path d="M1169 765C1169 761.686 1171.69 759 1175 759 1178.31 759 1181 761.686 1181 765 1181 768.314 1178.31 771 1175 771 1171.69 771 1169 768.314 1169 765Z" fill="#156082" fill-rule="evenodd" fill-opacity="0"/><path d="M1118 730C1118 726.686 1120.69 724 1124 724 1127.31 724 1130 726.686 1130 730 1130 733.314 1127.31 736 1124 736 1120.69 736 1118 733.314 1118 730Z" fill="#156082" fill-rule="evenodd" fill-opacity="0"/><path d="M1152.94 669.5 1152.94 692.428 1146.06 692.428 1146.06 669.5ZM1163.25 687.845 1149.5 715.345 1135.75 687.845Z" fill="#000000" fill-rule="nonzero" fill-opacity="1"/><path d="M1092.5 983.5 1149 886.5 1205.5 983.5Z" stroke="#000000" stroke-width="6.875" stroke-linecap="butt" stroke-linejoin="miter" stroke-miterlimit="8" stroke-opacity="1" fill="#00B0F0" fill-rule="evenodd" fill-opacity="1"/><text fill="#FFFFFF" fill-opacity="1" font-family="Segoe UI,Segoe UI_MSFontService,sans-serif" font-style="normal" font-variant="normal" font-weight="700" font-stretch="normal" font-size="50" text-anchor="start" direction="ltr" writing-mode="lr-tb" unicode-bidi="normal" text-decoration="none" transform="matrix(1 0 0 1 1135.08 968)">T</text><path d="M1266.5 836C1266.5 805.9 1290.9 781.5 1321 781.5 1351.1 781.5 1375.5 805.9 1375.5 836 1375.5 866.1 1351.1 890.5 1321 890.5 1290.9 890.5 1266.5 866.1 1266.5 836Z" stroke="#000000" stroke-width="6.875" stroke-linecap="butt" stroke-linejoin="miter" stroke-miterlimit="8" stroke-opacity="1" fill="#FFFFFF" fill-rule="evenodd" fill-opacity="1"/><text fill="#000000" fill-opacity="1" font-family="Aptos,Aptos_MSFontService,sans-serif" font-style="normal" font-variant="normal" font-weight="400" font-stretch="normal" font-size="73" text-anchor="start" direction="ltr" writing-mode="lr-tb" unicode-bidi="normal" text-decoration="none" transform="matrix(1 0 0 1 1299.61 860)">&lt;</text><path d="M3.43655-0.080937 4.50149 45.1362-2.3716 45.2981-3.43655 0.080937ZM14.7032 40.3113 1.60453 68.1275-12.7892 40.9588Z" fill="#000000" fill-rule="nonzero" fill-opacity="1" transform="matrix(-1 0 0 1 1151.1 818.5)"/><path d="M922.5 833C922.5 802.901 946.901 778.5 977 778.5 1007.1 778.5 1031.5 802.901 1031.5 833 1031.5 863.1 1007.1 887.5 977 887.5 946.901 887.5 922.5 863.1 922.5 833Z" stroke="#000000" stroke-width="6.875" stroke-linecap="butt" stroke-linejoin="miter" stroke-miterlimit="8" stroke-opacity="1" fill="#FFFFFF" fill-rule="evenodd" fill-opacity="1"/><text fill="#000000" fill-opacity="1" font-family="Aptos,Aptos_MSFontService,sans-serif" font-style="normal" font-variant="normal" font-weight="400" font-stretch="normal" font-size="73" text-anchor="start" direction="ltr" writing-mode="lr-tb" unicode-bidi="normal" text-decoration="none" transform="matrix(1 0 0 1 958.668 860)">+</text><path d="M875.5 834.062 900.609 834.063 900.609 840.938 875.5 840.937ZM896.026 823.75 923.526 837.5 896.026 851.25Z" fill="#000000" fill-rule="nonzero" fill-opacity="1"/><text fill="#000000" fill-opacity="1" font-family="Menlo,Menlo_MSFontService,sans-serif" font-style="normal" font-variant="normal" font-weight="400" font-stretch="normal" font-size="50" text-anchor="start" direction="ltr" writing-mode="lr-tb" unicode-bidi="normal" text-decoration="none" transform="matrix(1 0 0 1 840.694 857)">1</text><path d="M1151.4 988.415 1143.72 994.673 1135.25 1000.14 1126.24 1004.71 1116.76 1008.37 1106.9 1011.14 1096.74 1013.02 1086.34 1014.02 1075.79 1014.13 1065.17 1013.37 1054.54 1011.74 1043.99 1009.25 1033.59 1005.88 1023.42 1001.65 1013.55 996.563 1004.06 990.609 995.012 983.779 984.12 973.625 974.854 962.558 967.336 950.813 964.202 944.646 961.55 938.409 959.364 932.075 957.653 925.663 956.396 919.027 956.294 910.577 963.169 910.495 963.267 918.643 963.207 918.044 964.385 924.259 964.329 924.013 965.975 930.183 965.903 929.948 968.01 936.053 967.924 935.829 970.483 941.848 970.384 941.636 973.387 947.547 973.218 947.251 980.526 958.667 980.266 958.313 989.255 969.048 988.964 968.741 999.569 978.628 999.296 978.399 1008.08 985.032 1007.84 984.864 1017.08 990.662 1016.83 990.519 1026.45 995.48 1026.19 995.36 1036.1 999.481 1035.84 999.385 1045.98 1002.66 1045.71 1002.59 1055.99 1005.02 1055.72 1004.97 1066.07 1006.56 1065.8 1006.53 1076.14 1007.26 1075.86 1007.26 1086.12 1007.14 1085.83 1007.16 1095.93 1006.19 1095.63 1006.23 1105.5 1004.41 1105.19 1004.48 1114.75 1001.8 1114.44 1001.9 1123.6 998.358 1123.28 998.498 1131.98 994.092 1131.67 994.272 1139.83 989.001 1139.52 989.223 1147.06 983.084ZM945.708 914.198 961.251 887.67 973.148 916.021Z" fill="#000000" fill-rule="nonzero" fill-opacity="1"/><path d="M1.03893-3.27674 67.8396 17.9033 65.7618 24.4568-1.03893 3.27674ZM66.5875 6.68787 88.6456 28.1063 58.276 32.9018Z" fill="#000000" fill-rule="nonzero" fill-opacity="1" transform="matrix(1 0 0 -1 1015.5 794.606)"/><path d="M109.714 4.03692 124.136 1.45901 138.977-0.58649 154.092-2.08438 169.404-3.03191 184.837-3.42608 200.337-3.26344 208.095-2.80564 207.691 4.05742 200.016 3.60453 200.182 3.61031 184.827 3.44919 184.951 3.44826 169.642 3.83926 169.766 3.83382 154.58 4.77357 154.707 4.76338 139.721 6.24852 139.851 6.23309 125.143 8.26026 125.278 8.23882 110.924 10.8047ZM204.243-13.4009 230.758 2.16506 202.396 14.037Z" fill="#000000" fill-rule="nonzero" fill-opacity="1" transform="matrix(0.982353 0.187038 0.187038 -0.982353 1039.24 799.38)"/><path d="M79.1233 5.54008 92.613 1.64209 106.593-1.17315 120.805-2.86677 135.134-3.44008 149.465-2.89345 163.748-1.21857 168.759-0.0165932 167.156 6.66878 162.343 5.51444 162.745 5.58587 148.798 3.9505 149.067 3.9714 135.006 3.43504 135.274 3.43479 121.215 3.99733 121.484 3.97592 107.543 5.63725 107.815 5.59375 94.1094 8.35375 94.3851 8.28629 81.0318 12.1449ZM166.752-11.1175 190.225 8.73993 160.256 15.6041Z" fill="#000000" fill-rule="nonzero" fill-opacity="1" transform="matrix(-0.98104 -0.193807 -0.193807 0.98104 1380.57 789.916)"/><path d="M1322.94 730.393 1323.79 757.662 1316.92 757.877 1316.06 730.607ZM1333.95 752.759 1321.07 780.675 1306.47 753.618Z" fill="#000000" fill-rule="nonzero" fill-opacity="1"/><text fill="#000000" fill-opacity="1" font-family="Menlo,Menlo_MSFontService,sans-serif" font-style="normal" font-variant="normal" font-weight="400" font-stretch="normal" font-size="50" text-anchor="start" direction="ltr" writing-mode="lr-tb" unicode-bidi="normal" text-decoration="none" transform="matrix(1 0 0 1 1306.16 715)">n</text><text fill="#000000" fill-opacity="1" font-family="Menlo,Menlo_MSFontService,sans-serif" font-style="normal" font-variant="normal" font-weight="400" font-stretch="normal" font-size="50" text-anchor="start" direction="ltr" writing-mode="lr-tb" unicode-bidi="normal" text-decoration="none" transform="matrix(1 0 0 1 1133.37 646)">i</text><path d="M1094.5 1138.5C1094.5 1108.12 1119.12 1083.5 1149.5 1083.5 1179.88 1083.5 1204.5 1108.12 1204.5 1138.5 1204.5 1168.88 1179.88 1193.5 1149.5 1193.5 1119.12 1193.5 1094.5 1168.88 1094.5 1138.5Z" stroke="#000000" stroke-width="6.875" stroke-linecap="butt" stroke-linejoin="miter" stroke-miterlimit="8" stroke-opacity="1" fill="#E97132" fill-rule="evenodd" fill-opacity="1"/><text fill="#FFFFFF" fill-opacity="1" font-family="Segoe UI,Segoe UI_MSFontService,sans-serif" font-style="normal" font-variant="normal" font-weight="400" font-stretch="normal" font-size="50" text-anchor="start" direction="ltr" writing-mode="lr-tb" unicode-bidi="normal" text-decoration="none" transform="matrix(1 0 0 1 1121.68 1141)">LD</text><path d="M3.43745-0.0183675 3.83396 74.1886-3.04094 74.2253-3.43745 0.0183675ZM14.1218 69.5503 0.518963 97.1234-13.3778 69.6972Z" fill="#000000" fill-rule="nonzero" fill-opacity="1" transform="matrix(-1 0 0 1 1150.02 986.5)"/><path d="M1484.94 677.5 1484.94 700.428 1478.06 700.428 1478.06 677.5ZM1495.25 695.845 1481.5 723.345 1467.75 695.845Z" fill="#000000" fill-rule="nonzero" fill-opacity="1"/><text fill="#000000" fill-opacity="1" font-family="Menlo,Menlo_MSFontService,sans-serif" font-style="normal" font-variant="normal" font-weight="400" font-stretch="normal" font-size="50" text-anchor="start" direction="ltr" writing-mode="lr-tb" unicode-bidi="normal" text-decoration="none" transform="matrix(1 0 0 1 1467.69 654)">p</text><rect x="1433.5" y="720.5" width="91.0001" height="91.0001" stroke="#000000" stroke-width="6.875" stroke-linecap="butt" stroke-linejoin="miter" stroke-miterlimit="8" stroke-opacity="1" fill="#00B0F0" fill-opacity="1"/><text fill="#FFFFFF" fill-opacity="1" font-family="Segoe UI,Segoe UI_MSFontService,sans-serif" font-style="normal" font-variant="normal" font-weight="400" font-stretch="normal" font-size="55" text-anchor="start" direction="ltr" writing-mode="lr-tb" unicode-bidi="normal" text-decoration="none" transform="matrix(1 0 0 1 1461.84 785)">C</text><path d="M1423.5 984.5 1480 886.5 1536.5 984.5Z" stroke="#000000" stroke-width="6.875" stroke-linecap="butt" stroke-linejoin="miter" stroke-miterlimit="8" stroke-opacity="1" fill="#00B0F0" fill-rule="evenodd" fill-opacity="1"/><text fill="#FFFFFF" fill-opacity="1" font-family="Segoe UI,Segoe UI_MSFontService,sans-serif" font-style="normal" font-variant="normal" font-weight="700" font-stretch="normal" font-size="50" text-anchor="start" direction="ltr" writing-mode="lr-tb" unicode-bidi="normal" text-decoration="none" transform="matrix(1 0 0 1 1465.88 969)">T</text><path d="M1482.94 814.471 1483.35 863.754 1476.48 863.812 1476.06 814.529ZM1493.63 859.084 1480.11 886.699 1466.13 859.316Z" fill="#000000" fill-rule="nonzero" fill-opacity="1"/><path d="M1366.44 872.665 1434.97 919.638 1431.09 925.309 1362.56 878.335ZM1437.02 908.541 1451.93 935.43 1421.48 931.224Z" fill="#000000" fill-rule="nonzero" fill-opacity="1"/><path d="M1354.88 791.097 1363.24 783.2 1367.86 779.664 1372.6 776.536 1377.49 773.786 1382.52 771.418 1387.67 769.439 1392.93 767.852 1398.27 766.664 1403.88 765.85 1413.03 766.249 1412.73 773.117 1403.9 772.733 1404.54 772.7 1399.39 773.449 1399.64 773.403 1394.55 774.535 1394.79 774.471 1389.78 775.984 1390.02 775.901 1385.11 777.79 1385.34 777.692 1380.53 779.953 1380.76 779.84 1376.08 782.469 1376.29 782.342 1371.75 785.336 1371.94 785.196 1367.56 788.551 1367.83 788.321 1359.6 796.096ZM1410.39 755.404 1435.54 773.092 1406.3 782.598Z" fill="#000000" fill-rule="nonzero" fill-opacity="1"/><path d="M1475.5 985.477 1472.35 999.274 1467.58 1013.2 1461.34 1026.99 1453.72 1040.55 1444.84 1053.82 1434.77 1066.7 1423.62 1079.12 1411.46 1090.99 1398.41 1102.24 1384.54 1112.79 1369.95 1122.55 1354.73 1131.43 1338.96 1139.36 1322.75 1146.24 1306.17 1151.99 1289.33 1156.53 1277.28 1158.95 1265.45 1160.63 1253.9 1161.56 1242.65 1161.74 1231.66 1161.17 1224.53 1159.86 1225.76 1153.1 1232.68 1154.37 1232.24 1154.31 1242.89 1154.87 1242.66 1154.87 1253.68 1154.69 1253.46 1154.7 1264.8 1153.79 1264.59 1153.81 1276.21 1152.16 1276.02 1152.19 1287.87 1149.81 1287.65 1149.86 1304.26 1145.39 1304.03 1145.46 1320.38 1139.78 1320.17 1139.87 1336.18 1133.07 1335.97 1133.16 1351.54 1125.34 1351.36 1125.44 1366.39 1116.66 1366.22 1116.77 1380.63 1107.13 1380.46 1107.26 1394.16 1096.84 1394 1096.97 1406.89 1085.85 1406.74 1086 1418.73 1074.28 1418.58 1074.44 1429.58 1062.19 1429.43 1062.37 1439.34 1049.68 1439.2 1049.88 1447.94 1036.84 1447.8 1037.07 1455.27 1023.76 1455.13 1024.02 1461.25 1010.52 1461.12 1010.82 1465.78 997.219 1465.68 997.566 1468.8 983.946ZM1226.75 1170.89 1202.73 1151.69 1232.5 1144Z" fill="#000000" fill-rule="nonzero" fill-opacity="1"/><path d="M47.418 215.199 36.972 206.8 27.5915 197.566 19.422 187.689 12.4771 177.258 6.76964 166.36 2.31203 155.085-0.883909 143.52-2.80694 131.755-3.4464 119.88-2.79228 107.984-0.835294 96.1575 2.43295 84.4906 7.01983 73.0739 12.9316 61.9974 20.1735 51.3509 28.7491 41.2238 38.4316 31.9172 48.9238 23.6798 60.1236 16.5199 71.9309 10.4444 84.2462 5.4595 96.9715 1.57153 110.009-1.21307 123.263-2.88738 136.636-3.44392 150.032-2.87463 163.355-1.17083 176.507 1.67667 189.392 5.67745 201.91 10.8413 213.964 17.1778 225.436 24.6855 233.744 31.2208 241.348 38.2262 248.247 45.6716 254.427 53.5158 259.873 61.7175 264.573 70.235 268.511 79.0268 271.674 88.0507 274.049 97.2646 275.621 106.626 276.377 116.092 276.305 125.62 275.378 135.296 273.876 140.955 267.231 139.192 268.66 133.805 268.561 134.359 269.446 125.115 269.431 125.416 269.501 116.19 269.512 116.49 268.78 107.322 268.816 107.618 267.293 98.5488 267.354 98.8373 265.053 89.9078 265.138 90.1871 262.071 81.4374 262.178 81.7055 258.357 73.1759 258.484 73.4312 253.922 65.1622 254.068 65.4033 248.777 57.4353 248.94 57.6609 242.932 50.0343 243.11 50.2434 236.397 42.9986 236.59 43.1904 229.184 36.3679 229.388 36.5416 221.303 30.1817 221.546 30.3561 210.337 23.0203 210.619 23.1867 198.853 17.0009 199.141 17.136 186.913 12.0921 187.205 12.1972 174.613 8.28724 174.905 8.36402 162.045 5.5798 162.336 5.62986 149.304 3.96331 149.595 3.98798 136.488 3.43102 136.777 3.43114 123.693 3.97566 123.981 3.95153 111.016 5.58945 111.303 5.54074 98.5523 8.26396 98.8387 8.18976 86.4 11.9902 86.6853 11.8891 74.6548 16.7586 74.9379 16.6288 63.4124 22.5594 63.6911 22.3991 52.7671 29.3826 53.0383 29.1901 42.8123 37.2185 43.0717 36.993 33.6405 46.0581 33.8817 45.8012 25.5371 55.6554 25.7561 55.3673 18.7198 65.7118 18.9101 65.397 13.1727 76.1467 13.3298 75.8097 8.88218 86.8798 9.00257 86.5256 5.83551 97.8312 5.91682 97.4651 4.02111 108.921 4.06205 108.549 3.4285 120.071 3.42871 119.697 4.0481 131.2 4.00805 130.83 5.87119 142.228 5.79202 141.867 8.88968 153.076 8.77313 152.728 13.0961 163.663 12.9445 163.332 18.4836 173.908 18.2998 173.598 25.0458 183.731 24.8333 183.445 32.777 193.048 32.5398 192.789 41.672 201.779 41.4145 201.55 51.7261 209.841ZM285.032 139.408 264.313 162.125 258.571 131.92Z" fill="#000000" fill-rule="nonzero" fill-opacity="1" transform="matrix(-1.83697e-16 -1 -1 1.83697e-16 1683.5 1033.5)"/><path d="M1095.5 1460.5C1095.5 1430.12 1120.12 1405.5 1150.5 1405.5 1180.88 1405.5 1205.5 1430.12 1205.5 1460.5 1205.5 1490.88 1180.88 1515.5 1150.5 1515.5 1120.12 1515.5 1095.5 1490.88 1095.5 1460.5Z" stroke="#000000" stroke-width="6.875" stroke-linecap="butt" stroke-linejoin="miter" stroke-miterlimit="8" stroke-opacity="1" fill="#E97132" fill-rule="evenodd" fill-opacity="1"/><text fill="#FFFFFF" fill-opacity="1" font-family="Segoe UI,Segoe UI_MSFontService,sans-serif" font-style="normal" font-variant="normal" font-weight="400" font-stretch="normal" font-size="50" text-anchor="start" direction="ltr" writing-mode="lr-tb" unicode-bidi="normal" text-decoration="none" transform="matrix(1 0 0 1 1125.85 1464)">ST</text><path d="M1094.5 1303C1094.5 1272.9 1118.9 1248.5 1149 1248.5 1179.1 1248.5 1203.5 1272.9 1203.5 1303 1203.5 1333.1 1179.1 1357.5 1149 1357.5 1118.9 1357.5 1094.5 1333.1 1094.5 1303Z" stroke="#000000" stroke-width="6.875" stroke-linecap="butt" stroke-linejoin="miter" stroke-miterlimit="8" stroke-opacity="1" fill="#FFFFFF" fill-rule="evenodd" fill-opacity="1"/><text fill="#000000" fill-opacity="1" font-family="Aptos,Aptos_MSFontService,sans-serif" font-style="normal" font-variant="normal" font-weight="400" font-stretch="normal" font-size="73" text-anchor="start" direction="ltr" writing-mode="lr-tb" unicode-bidi="normal" text-decoration="none" transform="matrix(1 0 0 1 1129.18 1321)">g</text><path d="M3.4375-0.00365667 3.46581 26.6118-3.40919 26.6191-3.4375 0.00365667ZM13.7734 22.0175 0.0526903 49.5321-13.7266 22.0468Z" fill="#000000" fill-rule="nonzero" fill-opacity="1" transform="matrix(-1 0 0 1 1148.55 1197.5)"/><path d="M3.4375-0.00365667 3.46581 26.6118-3.40919 26.6191-3.4375 0.00365667ZM13.7734 22.0175 0.0526903 49.5321-13.7266 22.0468Z" fill="#000000" fill-rule="nonzero" fill-opacity="1" transform="matrix(-1 0 0 1 1150.55 1356.5)"/><path d="M1184.2 1180.27 1194.66 1187.81 1204.47 1196.6 1213.43 1206.4 1221.53 1217.13 1228.74 1228.67 1235.03 1240.93 1240.38 1253.81 1244.76 1267.2 1248.15 1281.02 1250.52 1295.15 1251.84 1309.51 1252.09 1324 1251.22 1338.51 1249.23 1352.96 1246.07 1367.23 1241.71 1381.21 1238.19 1390.18 1234.21 1398.75 1229.79 1406.92 1224.89 1414.74 1217.71 1423.64 1212.36 1419.33 1219.41 1410.59 1219.17 1410.92 1223.91 1403.36 1223.8 1403.55 1228.12 1395.57 1228.02 1395.76 1231.91 1387.38 1231.83 1387.57 1235.27 1378.81 1235.19 1379.05 1239.46 1365.32 1239.38 1365.6 1242.49 1351.6 1242.44 1351.88 1244.4 1337.7 1244.37 1337.97 1245.22 1323.72 1245.21 1323.98 1244.97 1309.76 1244.98 1310.02 1243.68 1295.91 1243.72 1296.16 1241.39 1282.28 1241.44 1282.53 1238.11 1268.97 1238.19 1269.22 1233.88 1256.08 1233.98 1256.33 1228.73 1243.7 1228.85 1243.95 1222.69 1231.94 1222.83 1232.19 1215.78 1220.9 1215.95 1221.15 1208.04 1210.67 1208.25 1210.92 1199.51 1201.36 1199.75 1201.6 1190.21 1193.05 1190.49 1193.28 1180.18 1185.84ZM1228.19 1427.57 1199.34 1438.18 1208.16 1408.73Z" fill="#000000" fill-rule="nonzero" fill-opacity="1"/><text fill="#FFFFFF" fill-opacity="1" font-family="Segoe UI,Segoe UI_MSFontService,sans-serif" font-style="normal" font-variant="normal" font-weight="400" font-stretch="normal" font-size="37" text-anchor="start" direction="ltr" writing-mode="lr-tb" unicode-bidi="normal" text-decoration="none" transform="matrix(1 0 0 1 1138.97 1179)">A</text><text fill="#FFFFFF" fill-opacity="1" font-family="Segoe UI,Segoe UI_MSFontService,sans-serif" font-style="normal" font-variant="normal" font-weight="400" font-stretch="normal" font-size="37" text-anchor="start" direction="ltr" writing-mode="lr-tb" unicode-bidi="normal" text-decoration="none" transform="matrix(1 0 0 1 1141.26 1500)">A</text></g></g></svg>