<svg xmlns="http://www.w3.org/2000/svg" xmlns:xlink="http://www.w3.org/1999/xlink" width="288" height="288" viewBox="0 0 216 216"><defs><path id="b" d="M6.828-.36c-.625.337-1.402.5-2.328.5-1.2 0-2.156-.382-2.875-1.156Q.547-2.17.547-4.046q0-2.016 1.219-3.25 1.217-1.25 3.078-1.25c.789 0 1.453.116 1.984.343v1.047a4.1 4.1 0 0 0-2-.5q-1.455.001-2.36.968-.89.973-.89 2.579c0 1.03.281 1.851.844 2.453q.843.907 2.203.906 1.266 0 2.203-.562Zm0 0"/><path id="c" d="M6.297-6.297H4.094V0H2.359v-6.297H.172v-1.406h6.125Zm0 0"/><path id="d" d="m.906-5.953 6.766-3.031v1.14L.906-4.875Zm0 1.437v-1.093l6.766 3v1.156Zm0 0"/><path id="e" d="M.89-5.797h6.766v1.125H.891Zm2.813 3.938v-6.75h1.14v6.75Zm0 0"/><path id="n" d="M3.906 2.953q-1.236 0-1.969-.281c-.492-.188-.843-.438-1.062-.75A1.74 1.74 0 0 1 .547.906q0-.675.562-1.187c.375-.344.957-.586 1.75-.735l.25-.421h.954q1.875 0 2.671.5.812.487.813 1.53-.001 1.032-.922 1.688-.908.67-2.719.672M3.875 2Q5.2 2 5.75 1.625q.546-.376.547-.922a.93.93 0 0 0-.188-.578q-.188-.229-.687-.36-.486-.14-1.406-.14H2.859c-.355.086-.632.234-.828.453a1.12 1.12 0 0 0-.281.75q-.001.468.484.813.499.358 1.641.359M2.844-.453q-.75-.075-1.172-.297-.421-.234-.61-.516a1.1 1.1 0 0 1-.171-.562q-.002-.374.297-.719.311-.34 1.015-.562l.656.406c-.28.086-.507.187-.671.312-.157.118-.235.25-.235.407q0 .158.14.28.154.113.5.188.342.08.97.079Zm.969-2.016c-.626 0-1.157-.117-1.594-.36a2.5 2.5 0 0 1-.985-.952 2.6 2.6 0 0 1-.328-1.281q0-.716.328-1.313a2.4 2.4 0 0 1 1-.937q.67-.36 1.625-.36.966 0 1.61.36.654.345.968.937.33.597.329 1.313 0 .704-.328 1.296-.315.597-.97.954-.657.344-1.655.343m0-.89q.749 0 1.234-.422.482-.437.484-1.281 0-.875-.468-1.297-.456-.437-1.204-.438c-.5 0-.914.149-1.234.438q-.485.44-.484 1.297-.002.86.5 1.28.497.423 1.172.423m1.984-3.485-.531-.484q.34-.731.875-1 .545-.263 1.406-.297v1.11q-.55.001-1 .109-.457.11-.75.562m0 0"/><path id="f" d="M1.453-.906h1.688V-6.97L1.125-6v-1.031l2-.969h1.094v7.094h1.656V0H1.453Zm0 0"/><path id="g" d="M5.64-3.734V0h-.984v-3.734q-.002-.797-.297-1.172-.28-.388-.89-.39-.69 0-1.063.5-.375.486-.375 1.39V0h-.984v-6.016h.984v.907q.263-.514.719-.782.451-.264 1.063-.265.919 0 1.374.61.453.595.454 1.812m0 0"/><path id="h" d="M1.703-6h2.531v5.234h1.954V0H1.28v-.766h1.953v-4.453h-1.53Zm1.531-2.328h1v1.25h-1Zm0 0"/><path id="k" d="M2.016-.75v3.031h-1v-8.297h1v.766a1.75 1.75 0 0 1 .656-.672q.404-.234.953-.234 1.077 0 1.703.843c.414.563.625 1.34.625 2.329q-.001 1.47-.625 2.312c-.418.555-.984.828-1.703.828-.367 0-.687-.082-.969-.234a1.64 1.64 0 0 1-.64-.672M4.922-3q0-1.155-.375-1.734-.363-.593-1.078-.594-.72.002-1.094.594-.362.597-.36 1.734-.002 1.143.36 1.734.374.58 1.094.579.715 0 1.078-.579.375-.591.375-1.734m0 0"/><path id="i" d="M5 0H1.016v-7.703h.89v6.89H5Zm0 0"/><path id="j" d="M1.016 0v-7.703H3.14q4.061 0 4.062 3.75 0 1.783-1.125 2.875Q4.952 0 3.047 0Zm.89-6.89v6.078h1.157q1.512 0 2.359-.813.843-.81.844-2.297c0-1.976-1.055-2.969-3.157-2.969Zm0 0"/><path id="l" d="M.656-.312v-1.063q.17.157.422.297c.176.086.36.156.547.219.188.054.375.093.563.125q.28.045.53.046.827.001 1.235-.296.422-.31.422-.891 0-.311-.14-.547a1.5 1.5 0 0 0-.391-.422 3.7 3.7 0 0 0-.563-.36q-.328-.187-.703-.374-.409-.2-.765-.406-.346-.217-.61-.47a2 2 0 0 1-.406-.562 1.9 1.9 0 0 1-.14-.765q0-.515.234-.907.234-.387.609-.64.374-.247.86-.375a4 4 0 0 1 .968-.125q1.138.001 1.672.266v1.015q-.69-.468-1.75-.469c-.2 0-.398.024-.594.063q-.298.064-.531.203a1.14 1.14 0 0 0-.375.36.97.97 0 0 0-.14.53 1.12 1.12 0 0 0 .421.907q.216.174.531.344.31.173.72.359.404.204.78.438c.25.148.461.312.641.5q.28.27.438.609.17.33.172.765-.001.564-.22.97a1.8 1.8 0 0 1-.609.64q-.376.236-.875.344a5 5 0 0 1-1.03.109q-.19-.001-.454-.031A7 7 0 0 1 1.578 0a3.5 3.5 0 0 1-.531-.125 1.2 1.2 0 0 1-.39-.187m0 0"/><path id="m" d="M5.563-6.89h-2.22V0h-.905v-6.89H.217v-.813h5.345Zm0 0"/><path id="o" d="M5.078 0h-.734L3.75-1.578H1.375L.813 0h-.72l2.141-5.61h.688ZM3.531-2.156l-.875-2.39a1.7 1.7 0 0 1-.078-.376h-.015a3 3 0 0 1-.094.375l-.875 2.39Zm0 0"/><clipPath id="a"><path d="M0 0h215.762v215.762H0Zm0 0"/></clipPath></defs><g clip-path="url(#a)"><path fill="#fff" d="M0 0h215.762v215.762H0Zm0 0"/></g><path fill="#fff" d="M-21.6-21.6h259.2v259.2H-21.6z"/><path d="M107.887 65.965 93.414 79.02l1.004 1.113 14.473-13.051Zm-15.239 10.71-2.445 6.247 6.465-1.79Zm0 0"/><path fill="#00b0f0" stroke="#000" stroke-miterlimit="8" stroke-width="1.524" d="M69.598 32.828h19.945v19.95H69.598Zm0 0"/><use xlink:href="#b" x="76.003" y="48" fill="#fff"/><path d="M80.09 21.7v5h-1.5v-5Zm2.25 4-3 6-3-6Zm0 0"/><path fill="#00b0f0" fill-rule="evenodd" stroke="#000" stroke-miterlimit="8" stroke-width="1.524" d="M67.043 90.2 79.34 68.995 91.637 90.2Zm0 0"/><use xlink:href="#c" x="76.399" y="87.12" fill="#fff"/><path fill="#fff" fill-rule="evenodd" stroke="#000" stroke-miterlimit="8" stroke-width="1.524" d="M104.895 58.086c0-6.59 5.343-11.93 11.933-11.93s11.93 5.34 11.93 11.93-5.34 11.934-11.93 11.934-11.933-5.344-11.933-11.934Zm0 0"/><use xlink:href="#d" x="112.297" y="63.6"/><path d="m78.941 54.117-.234 9.863 1.5.036.234-9.864Zm-2.46 8.813 2.859 6.066 3.14-5.926Zm0 0"/><path fill="#fff" fill-rule="evenodd" stroke="#000" stroke-miterlimit="8" stroke-width="1.524" d="M29.887 57.375c0-6.59 5.34-11.934 11.93-11.934S53.75 50.785 53.75 57.375s-5.344 11.93-11.934 11.93-11.93-5.34-11.93-11.93Zm0 0"/><use xlink:href="#e" x="37.91" y="63.6"/><path d="M19.703 57.598h5.477v1.5h-5.477Zm4.477-2.25 6 3-6 3Zm0 0"/><use xlink:href="#f" x="12.17" y="62.4"/><path d="m79.96 91.402-1.675 1.368-1.847 1.195-1.97.996-2.066.797-2.152.605-2.215.41-2.27.215-2.3.028-2.32-.164-2.317-.356-2.3-.547-2.27-.734-2.219-.922-2.156-1.11-2.07-1.3-1.973-1.488-2.375-2.22-2.024-2.413-1.648-2.57-1.25-2.684-.48-1.395-.376-1.398-.273-1.45-.023-1.843 1.5-.02.023 1.778-.016-.13.258 1.356-.011-.054.359 1.347-.016-.05.461 1.331-.031-.074 1.215 2.606-.047-.09 1.594 2.492-.059-.078 1.961 2.344-.062-.067 2.312 2.157-.059-.051 1.918 1.449-.054-.04 2.02 1.267-.055-.032 2.097 1.082-.058-.027 2.164.902-.059-.023 2.215.715-.059-.016 2.243.531-.06-.011 2.259.347-.059-.008 2.254.16h-.059l2.239-.027-.067.004 2.207-.21-.066.011 2.152-.398-.066.015 2.086-.586-.07.024 2-.774-.067.031 1.895-.96-.067.039 1.778-1.153-.067.051 1.645-1.34ZM35.083 75.211l3.39-5.79 2.598 6.188ZM50.48 49.652l14.575-4.62-.453-1.43-14.575 4.62Zm14.301-2.175 4.813-4.672-6.625-1.047Zm14.391 6.296 2.984 1.141 3.098 1.043 3.18.938 3.242.828 3.293.715 3.328.597 1.68.219.195-1.488-1.664-.215.035.004-3.297-.59.027.004-3.265-.707.023.004-3.215-.82.028.007-3.153-.93.028.008-3.07-1.035.027.012-2.969-1.137Zm19.547 7.594 6.32-2.254-5.598-3.703Zm14.071-15.433-2.72-1.403-2.875-1.195-2.968-.961-3.043-.73-3.094-.489-3.125-.246-1.125.047.058 1.496 1.082-.043h-.09l3.055.238-.058-.007 3.031.48-.059-.012 2.989.715-.059-.015 2.914.945-.055-.02 2.817 1.168-.059-.023 2.696 1.39Zm-18.052-7.27-5.863 3.258L95 44.66Zm22.52-3.766.183 5.95-1.5.047-.183-5.95Zm2.402 4.88-2.812 6.093-3.184-5.906Zm0 0"/><use xlink:href="#g" x="113.725" y="31.44"/><use xlink:href="#h" x="76.028" y="16.56"/><path fill="#e97132" fill-rule="evenodd" stroke="#000" stroke-miterlimit="8" stroke-width="1.524" d="M67.363 124.023c0-6.632 5.38-12.011 12.012-12.011s12.008 5.379 12.008 12.011c0 6.633-5.375 12.008-12.008 12.008s-12.012-5.375-12.012-12.008Zm0 0"/><g fill="#fff"><use xlink:href="#i" x="73.475" y="125.04"/><use xlink:href="#j" x="78.6" y="125.04"/></g><path d="m78.738 90.82-.09 16.188 1.5.008.09-16.188Zm-2.332 15.176 2.969 6.016 3.031-5.98Zm76.242-82.633v5h-1.5v-5Zm2.25 4-3 6-3-6Zm0 0"/><use xlink:href="#k" x="148.969" y="18.24"/><path fill="#00b0f0" stroke="#000" stroke-miterlimit="8" stroke-width="1.524" d="M141.305 32.828h19.949v19.95h-19.95Zm0 0"/><use xlink:href="#b" x="147.694" y="47.28" fill="#fff"/><path fill="#00b0f0" fill-rule="evenodd" stroke="#000" stroke-miterlimit="8" stroke-width="1.524" d="m139.215 90.355 12.3-21.203 12.298 21.203Zm0 0"/><use xlink:href="#c" x="148.573" y="87.36" fill="#fff"/><path d="m152.133 53.395.09 10.75-1.5.015-.09-10.754Zm2.332 9.734-2.95 6.023-3.05-5.976Zm-27.75 2.93 14.95 10.25-.849 1.238-14.953-10.25Zm15.398 7.828 3.254 5.867-6.648-.918Zm-17.758-25.535 1.836-1.73 2.032-1.446 2.164-1.117 2.27-.778 2.382-.437 2.012.117-.09 1.5-1.922-.117.18-.008-2.235.41.106-.027-2.164.742.101-.043-2.07 1.066.09-.054-1.945 1.383.082-.067-1.797 1.7Zm12.09-7.754 5.508 3.828-6.367 2.11Zm14.227 50.164-.688 3.011-1.039 3.04-1.363 3.007-1.66 2.961-1.938 2.89-2.199 2.813-2.433 2.711-2.649 2.59-2.851 2.453-3.024 2.301-3.183 2.129-3.32 1.941-3.442 1.727-3.54 1.504-3.616 1.254-3.672.988-2.63.531-2.581.364-2.52.203-2.453.043-2.398-.125-1.559-.286.27-1.476 1.511.277-.097-.011 2.324.12h-.05l2.401-.038h-.046l2.476-.2-.047.004 2.535-.36-.043.009 2.586-.52-.046.012 3.624-.977-.05.016 3.566-1.238-.047.02 3.492-1.485-.043.02 3.399-1.708-.043.024 3.281-1.914-.039.023 3.149-2.105-.04.027 2.989-2.273-.035.03 2.812-2.425-.031.031 2.613-2.558-.031.035 2.398-2.672-.03.04 2.163-2.77-.031.046 1.906-2.847-.031.05 1.629-2.906-.028.059 1.333-2.945-.028.066 1.02-2.969-.024.078.68-2.972Zm-54.274 40.453-5.238-4.188 6.496-1.68Zm0 0"/><path d="m149.012 90.813 1.836 2.273 2.015 2.043 2.157 1.781 2.277 1.512 2.379 1.242 2.46.969 2.524.695 2.567.418 2.59.137 2.597-.145 2.582-.43 2.543-.71 2.492-1.004 2.414-1.29 2.325-1.581 2.207-1.868 2.03-2.113 1.798-2.289 1.558-2.441 1.325-2.575 1.085-2.683.848-2.774.606-2.843.367-2.887.117-2.914-.125-2.922-.375-2.902-.621-2.867-.875-2.81-1.13-2.726-1.382-2.625-1.64-2.5-1.426-1.808-1.528-1.653-1.625-1.503-1.71-1.344-1.79-1.184-1.855-1.023-1.918-.86-1.969-.687-2.008-.516-2.039-.343-2.066-.165-2.074.016-2.11.2-1.23.327.383 1.45 1.172-.309-.122.02 2.016-.192-.066.004 2.011-.016-.066-.003 2 .16-.066-.008 1.98.332-.062-.012 1.945.5-.063-.02 1.91.669-.058-.024 1.86.832-.055-.027 1.8.992-.05-.031 1.738 1.152-.05-.035 1.663 1.305-.047-.04 1.582 1.462-.043-.04 1.489 1.61-.04-.043 1.387 1.758-.035-.051 1.602 2.441-.04-.062 1.352 2.562-.027-.062 1.101 2.664-.023-.063.855 2.743-.015-.063.605 2.8-.008-.062.364 2.84-.004-.062.12 2.855v-.062l-.116 2.851.008-.062-.36 2.824.012-.063-.594 2.782.02-.063-.828 2.711.02-.062-1.06 2.62.028-.062-1.293 2.516.035-.063-1.523 2.383.043-.058-1.75 2.226.046-.055-1.976 2.055.058-.05-2.152 1.82.063-.047-2.254 1.535.066-.043-2.344 1.254.075-.035-2.414.969.074-.024-2.465.691.078-.02-2.5.415.082-.008-2.512.14h.078l-2.507-.132.078.008-2.485-.403.079.016-2.446-.672.074.024-2.386-.942.074.035-2.309-1.207.067.04-2.211-1.47.062.048-2.097-1.73.054.054-1.96-1.992.05.058-1.812-2.246Zm16.543-51.805-4.961 4.515 6.59 1.258Zm0 0"/><path fill="#e97132" fill-rule="evenodd" stroke="#000" stroke-miterlimit="8" stroke-width="1.524" d="M67.648 194.36c0-6.633 5.38-12.012 12.012-12.012s12.008 5.379 12.008 12.011c0 6.63-5.375 12.008-12.008 12.008s-12.012-5.379-12.012-12.008Zm0 0"/><g fill="#fff"><use xlink:href="#l" x="74.386" y="195.36"/><use xlink:href="#m" x="80.261" y="195.36"/></g><path fill="#fff" fill-rule="evenodd" stroke="#000" stroke-miterlimit="8" stroke-width="1.524" d="M67.332 159.875c0-6.59 5.344-11.93 11.934-11.93s11.93 5.34 11.93 11.93-5.34 11.934-11.93 11.934-11.934-5.344-11.934-11.934Zm0 0"/><use xlink:href="#n" x="75.111" y="164.16"/><path d="m78.484 136.988-.004 5.805 1.5.004.004-5.809Zm-2.254 4.805 2.993 6 3.007-5.996Zm2.692 29.77-.008 5.808h1.5l.008-5.809Zm-2.258 4.804 2.996 6.004 3.004-5.996Zm10.453-43.105 2.281 1.648 2.141 1.914 1.957 2.14 1.766 2.34 1.574 2.52 1.371 2.676 1.168 2.809.953 2.921.742 3.016.516 3.082.289 3.133.055 3.16-.188 3.168-.437 3.152-.692 3.114-.949 3.05-.766 1.958-.87 1.87-.966 1.782-1.066 1.707-1.566 1.941-1.168-.941 1.535-1.906-.05.07 1.034-1.649-.023.043.941-1.742-.02.043.848-1.828-.02.04.75-1.911-.015.05.93-2.991-.016.058.676-3.054-.008.062.426-3.094-.004.059.184-3.11v.06l-.055-3.106.004.054-.285-3.074.008.055-.508-3.031.011.054-.726-2.957.016.055-.938-2.867.02.05-1.145-2.753.027.054-1.343-2.617.03.055-1.538-2.465.035.055-1.723-2.286.043.055-1.906-2.09.055.055-2.082-1.867.058.05-2.25-1.62Zm9.598 53.957-6.297 2.316 1.926-6.426Zm0 0"/><use xlink:href="#o" x="77.249" y="133.2" fill="#fff"/><use xlink:href="#o" x="77.749" y="203.04" fill="#fff"/></svg>